<svg xmlns="http://www.w3.org/2000/svg" xmlns:xlink="http://www.w3.org/1999/xlink" fill="none" version="1.1"  viewBox="0 0 406.0695797689259 297.1274653375149"><g style="mix-blend-mode:passthrough" transform="matrix(-0.9975219964981079,0.07035506516695023,-0.07035506516695023,-0.9975219964981079,819.1251097778309,501.53718051939285)"><path d="M395.7301944606006,525.6938653960824Q395.7301944606006,498.6888653960824,399.6242144606006,472.45986539608236Q403.4217444606006,446.8808653960824,410.80279446060064,422.8288653960824Q418.0573944606006,399.18786539608243,428.5187944606006,377.8448653960824Q438.8977944606006,356.6701653960824,452.0399944606006,338.5562653960824Q465.2139944606006,320.39846539608243,480.6511944606006,306.0239653960824Q496.2858944606006,291.4653653960824,513.6441944606006,281.3456653960824Q531.3831944606006,271.0045353960824,550.2831944606006,265.6740553960824Q569.7131944606006,260.1938653960824,589.7301944606006,260.1938653960824Q609.7471944606007,260.1938653960824,629.1771944606006,265.6740403960824Q648.0771944606006,271.0044953960824,665.8161944606006,281.3456653960824Q683.1741944606006,291.4652653960824,698.8091944606006,306.0239653960824Q714.2461944606007,320.3982653960824,727.4201944606007,338.5562653960824Q740.5621944606006,356.6698653960824,750.9411944606006,377.8448653960824Q761.4031944606006,399.18786539608243,768.6571944606006,422.8288653960824Q776.0381944606006,446.87986539608244,779.8361944606006,472.45986539608236Q783.7301944606006,498.68786539608243,783.7301944606006,525.6938653960824L773.7301944606006,525.6938653960824Q773.7301944606006,499.4268653960824,769.9441944606006,473.92786539608244Q766.2571944606007,449.0938653960824,759.0971944606006,425.7618653960824Q752.0751944606006,402.87786539608237,741.9621944606006,382.2468653960824Q731.9621944606006,361.8447653960824,719.3261944606006,344.4287653960824Q706.7221944606006,327.0557653960824,691.9941944606006,313.3423653960824Q677.1751944606006,299.5431653960824,660.7791944606006,289.9848653960824Q644.1391944606006,280.2839653960824,626.4631944606006,275.2985653960824Q608.3641944606006,270.1938653960824,589.7301944606006,270.1938653960824Q571.0961944606006,270.1938653960824,552.9971944606007,275.2985653960824Q535.3211944606006,280.2839653960824,518.6811944606006,289.9848653960824Q502.2851944606006,299.5432653960824,487.4658944606006,313.3423653960824Q472.73849446060063,327.0559653960824,460.13409446060064,344.4287653960824Q447.4978944606006,361.84526539608237,437.4980944606006,382.2468653960824Q427.3851944606006,402.8788653960824,420.36279446060064,425.7618653960824Q413.20269446060064,449.0948653960824,409.5157944606006,473.92786539608244Q405.7301944606006,499.4268653960824,405.7301944606006,525.6938653960824L395.7301944606006,525.6938653960824Z" fill="#0080A7" fill-opacity="0.20000000298023224"/></g></svg>