<svg version="1.1" id="Layer_1" xmlns="http://www.w3.org/2000/svg" xmlns:xlink="http://www.w3.org/1999/xlink" x="0px" y="0px"
	 width="100%" viewBox="0 0 766 709" enable-background="new 0 0 766 709" xml:space="preserve">

<path fill="#219BD2" opacity="1.000000" stroke="none" 
	d="
M575.144714,494.242279 
	C556.617798,496.641968 538.631104,496.389099 520.539307,493.558899 
	C500.570679,490.435120 481.817688,484.218140 464.325989,474.209778 
	C445.276001,463.309845 430.443359,448.066071 419.050690,429.400574 
	C418.413300,428.356262 418.218964,427.041534 417.328033,424.397186 
	C420.898438,425.759155 423.245850,426.650208 425.590057,427.549561 
	C439.682861,432.956146 453.403564,439.878113 467.947174,443.446960 
	C495.411896,450.186584 522.213562,446.676331 546.967834,432.270264 
	C570.834717,418.380615 587.321228,398.120056 595.471130,371.794312 
	C606.661255,335.648010 600.214050,302.168762 576.807739,272.585938 
	C557.710327,248.448959 532.306458,235.230576 501.416473,232.717163 
	C499.081268,232.527161 496.174713,230.526642 494.816315,228.505630 
	C477.937134,203.393631 455.957123,184.281586 428.163971,172.323273 
	C402.542419,161.299332 375.686798,158.134857 348.072479,162.091934 
	C315.152069,166.809341 286.822571,181.133453 263.881805,204.995392 
	C254.652206,214.595581 247.707443,226.392197 239.720123,237.187195 
	C238.863190,238.345337 237.988358,239.490219 236.409119,241.587921 
	C233.908875,236.601089 231.578308,232.471451 229.710968,228.142014 
	C219.443161,204.335999 214.928757,179.399475 217.270706,153.620605 
	C220.202530,121.348854 231.771500,92.297081 252.514023,67.151115 
	C273.358368,41.881706 299.632111,24.756575 331.081940,15.841202 
	C353.629303,9.449491 376.563202,8.613349 399.705658,12.582399 
	C434.949860,18.626959 464.488434,35.136066 488.524963,61.346241 
	C505.192902,79.521446 517.064209,100.573639 523.188171,124.600990 
	C524.944885,131.493271 526.179321,138.536682 527.292480,145.567917 
	C527.925720,149.567963 529.465759,151.093323 533.784119,151.145767 
	C547.549438,151.312912 561.448792,150.962738 575.040100,152.755234 
	C603.773621,156.544785 629.746704,167.848648 652.768250,185.462082 
	C683.909607,209.287903 705.014648,240.150665 715.397888,277.991516 
	C722.272278,303.044678 723.020386,328.519562 718.511414,354.133636 
	C711.911194,391.627411 694.323364,423.214020 666.880798,449.330200 
	C647.150574,468.106812 624.115723,481.428925 597.887024,488.955536 
	C590.557190,491.058868 583.019409,492.437286 575.144714,494.242279 
z"/>
<path fill="#EA9B18" opacity="1.000000" stroke="none" 
	d="
M38.584030,259.528168 
	C38.617905,259.183472 38.651783,258.838745 39.120605,258.157593 
	C39.929134,257.506134 40.426556,257.263306 40.658306,256.865631 
	C47.312847,245.446533 53.949848,234.017181 60.565922,222.575745 
	C62.040581,220.025574 63.426483,217.424072 64.853256,214.846207 
	C64.853249,214.846207 64.977585,214.998886 65.251358,214.904892 
	C66.541740,213.988098 67.628860,213.237991 68.563896,212.331116 
	C76.617813,204.519684 84.637718,196.673218 92.683517,188.853394 
	C94.747398,186.847488 96.867180,184.899109 98.961281,182.924301 
	C98.961281,182.924301 99.225471,182.716156 99.768295,182.737152 
	C101.208328,182.368912 102.180832,182.096359 102.991631,181.573212 
	C118.793793,171.376755 135.528732,163.306305 153.871948,158.734680 
	C157.729141,157.773376 161.404648,156.083069 165.163879,154.728683 
	C165.898422,154.599121 166.632965,154.469559 168.079712,154.539368 
	C172.359940,154.577866 176.389481,156.636093 179.148468,152.584961 
	C180.452667,152.505737 181.756882,152.426529 183.493225,152.840302 
	C183.945923,165.530243 183.865295,177.729034 184.086014,189.922363 
	C184.123032,191.967590 185.465302,193.989197 186.204468,196.021729 
	C186.264008,196.968201 186.323563,197.914673 186.265656,199.641006 
	C186.879562,202.666626 187.610931,204.912384 188.342300,207.158142 
	C188.461349,207.890503 188.580399,208.622864 188.501953,210.028976 
	C189.151016,214.508911 189.457657,218.542831 190.948441,222.077271 
	C194.926620,231.509003 199.248093,240.808151 203.795151,249.980545 
	C205.242599,252.900360 204.895096,254.529114 202.321671,256.168671 
	C199.106232,258.217224 195.882858,260.274261 192.825485,262.546387 
	C178.174911,273.434235 166.456436,286.863525 158.644104,303.415802 
	C156.582413,307.783966 155.731781,312.723724 154.325043,317.401001 
	C154.307022,317.755981 154.289001,318.110962 153.878723,318.909180 
	C152.864944,320.495789 151.973846,321.570557 151.662567,322.792969 
	C147.321274,339.842072 148.365646,356.582275 154.726608,372.989441 
	C162.191803,392.244843 174.536575,407.457611 192.791748,417.278046 
	C198.892624,420.559998 205.857132,422.236511 212.426849,424.646942 
	C212.775208,424.664825 213.123550,424.682709 213.909393,425.093018 
	C215.648102,426.162872 216.891266,427.261047 218.259872,427.449921 
	C227.588745,428.737000 236.955643,430.855988 246.287979,430.749695 
	C260.180603,430.591461 274.094086,429.157318 287.916565,427.557037 
	C293.115021,426.955200 298.084229,424.373627 303.157959,422.694611 
	C303.594513,422.603455 304.031097,422.512299 305.087067,422.585876 
	C307.519470,422.022644 309.332489,421.294678 311.145477,420.566711 
	C311.571503,420.471039 311.997498,420.375397 313.036591,420.461609 
	C318.034882,419.448486 322.576691,418.649353 326.777161,416.987366 
	C341.961853,410.979401 357.285858,405.225769 372.067841,398.327393 
	C384.807709,392.382019 396.919769,385.078217 409.238342,378.246887 
	C423.353699,370.419128 437.200623,362.140656 450.164398,352.484314 
	C462.009705,343.661041 473.769440,334.722900 485.596924,325.875610 
	C486.633881,325.099945 487.894196,324.622925 489.050781,324.007202 
	C489.375702,324.346008 489.700592,324.684814 490.025482,325.023621 
	C489.411438,326.251892 488.937195,327.577271 488.161926,328.693542 
	C479.090393,341.754547 469.956604,354.772247 460.879242,367.829163 
	C458.144684,371.762543 455.533630,375.781769 452.865967,379.761658 
	C452.865936,379.761627 452.849091,379.850891 452.488220,379.949829 
	C447.381409,385.637360 442.635437,391.225952 437.889465,396.814545 
	C437.889465,396.814545 437.886993,396.889069 437.524109,396.959961 
	C434.403931,399.958588 431.646606,402.886292 428.889282,405.814026 
	C428.889282,405.814026 428.889923,405.888947 428.570435,405.964417 
	C427.796631,406.628662 427.342316,407.217438 426.887970,407.806183 
	C426.887970,407.806183 426.884155,407.882965 426.513794,407.958313 
	C421.116974,412.723267 416.090546,417.412872 411.064148,422.102509 
	C410.855133,422.370331 410.597473,422.577606 409.721710,422.880341 
	C406.776031,424.550751 404.228210,425.852753 402.049927,427.612274 
	C377.984924,447.050507 351.478394,462.183044 322.571838,473.189545 
	C317.249359,475.216156 312.167816,477.875488 306.975067,480.242798 
	C306.641754,480.306915 306.308441,480.370972 305.295166,480.305817 
	C303.636749,480.263153 302.620239,480.207886 301.685638,480.458374 
	C292.521057,482.914917 283.502197,486.252533 274.186523,487.734497 
	C257.234406,490.431213 240.348541,494.314514 222.943512,493.170166 
	C221.293549,493.061707 219.540298,494.524078 217.835022,495.257141 
	C216.143372,495.287506 214.451721,495.317841 212.149048,494.979736 
	C209.175064,494.092865 206.794281,493.057953 204.451965,493.138672 
	C187.587479,493.719910 171.258499,490.716339 155.097824,486.305969 
	C150.135132,484.951599 145.104126,483.847656 140.104401,482.629028 
	C139.674591,482.587738 139.244766,482.546478 138.413971,482.088562 
	C137.424683,481.141083 136.923248,480.416840 136.235306,480.107880 
	C120.657486,473.111206 105.318298,465.733551 91.968193,454.804718 
	C89.587791,452.856049 86.608002,451.639557 83.904984,450.084961 
	C83.904984,450.084961 83.991058,450.002411 83.913818,449.712006 
	C83.352325,448.759521 82.966339,447.988190 82.369507,447.451263 
	C65.216446,432.021515 51.437126,414.038208 41.766594,393.066650 
	C36.232662,381.065735 33.092010,368.338562 30.353481,355.384888 
	C26.817360,338.658508 27.526442,321.877716 28.511303,305.183807 
	C29.115953,294.934692 32.520256,284.841248 34.782051,274.703461 
	C35.917198,269.615540 37.308548,264.584778 38.584030,259.528168 
z"/>
<path fill="#249CD2" opacity="1.000000" stroke="none" 
	d="
M360.994751,293.788757 
	C322.008057,303.103210 285.339935,316.899506 252.984390,340.378174 
	C244.551697,346.497345 237.105850,353.994843 229.361191,361.029297 
	C227.689804,362.547424 226.684235,364.798645 224.806717,366.258698 
	C221.600113,359.238739 224.117416,353.302185 225.998901,347.788422 
	C234.385971,323.209625 250.205460,304.193939 271.046051,288.947815 
	C286.584473,277.580505 303.169373,268.334686 321.106964,261.359741 
	C334.671875,256.085083 348.737457,253.167755 363.115845,251.585556 
	C364.674225,251.414062 366.868439,252.279648 367.968811,253.429016 
	C377.744049,263.639862 387.354401,274.009064 396.960602,284.380463 
	C397.794464,285.280701 398.250397,286.531036 399.058716,287.923401 
	C386.143036,289.923309 373.779480,291.837738 360.994751,293.788757 
z"/>
<path fill="#279DD2" opacity="1.000000" stroke="none" 
	d="
M441.630005,355.596497 
	C431.927246,351.464355 422.486145,346.475128 412.456635,343.413086 
	C399.395172,339.425415 385.755920,338.461548 372.000305,338.714813 
	C350.663177,339.107574 330.131500,343.478302 310.101837,350.358307 
	C288.154755,357.896973 267.350586,367.971405 248.597397,381.694672 
	C239.240204,388.542145 230.860062,396.726318 222.056900,404.327820 
	C220.596649,405.588715 219.233688,406.962280 217.462967,407.998535 
	C219.809097,396.935150 225.531357,387.703918 232.661606,379.341248 
	C248.376038,360.910767 268.137604,347.861420 289.558777,337.036133 
	C310.698303,326.353119 332.794861,318.057465 355.560913,311.821838 
	C372.161530,307.274933 388.883911,302.699402 406.336029,302.210022 
	C409.690887,302.115936 411.927246,302.965851 413.795319,305.809113 
	C424.017303,321.367035 434.365509,336.842041 444.964539,352.856018 
	C444.049194,354.109833 442.839600,354.853180 441.630005,355.596497 
z"/>
<path fill="#0A0A0A" opacity="1.000000" stroke="none" 
	d="
M513.447876,685.438477 
	C513.421387,680.167236 513.240906,675.331299 513.466431,670.514404 
	C513.839417,662.547852 517.125549,659.450195 525.070129,659.410583 
	C537.388428,659.349182 549.709900,659.250732 562.024231,659.479126 
	C565.917786,659.551270 569.792908,660.618286 574.139771,661.303040 
	C575.444763,658.265503 573.817871,655.631348 570.895752,654.167053 
	C568.631531,653.032532 565.821472,652.566956 563.246887,652.541565 
	C548.432678,652.395447 533.615662,652.391357 518.801331,652.527039 
	C515.400757,652.558167 514.063599,651.557251 514.114136,647.996704 
	C514.283325,636.069458 513.515442,637.961670 523.817932,637.912292 
	C539.798462,637.835693 555.796082,638.335876 571.754822,637.741577 
	C583.058350,637.320679 592.420471,647.923218 592.267151,657.689941 
	C592.089355,669.006836 592.192993,680.329041 592.270142,691.648315 
	C592.290833,694.690247 591.363403,696.541626 587.984314,696.155090 
	C583.326599,695.622314 578.675476,695.032104 574.019592,694.482666 
	C573.570374,694.429626 573.107483,694.484192 572.651367,694.499634 
	C556.586792,695.042358 540.525269,695.806213 524.456299,696.031555 
	C517.141357,696.134155 515.137329,693.787720 513.447876,685.438477 
M533.231567,680.621338 
	C544.578430,680.920166 555.925415,681.344421 567.271851,681.328857 
	C568.441650,681.327271 569.607910,678.701904 570.775818,677.294006 
	C569.324097,676.129272 567.901489,674.000305 566.415833,673.955383 
	C556.305542,673.649536 546.176270,673.582275 536.065552,673.871338 
	C531.959229,673.988770 531.002014,676.274841 533.231567,680.621338 
z"/>
<path fill="#0C0C0C" opacity="1.000000" stroke="none" 
	d="
M119.881348,652.075684 
	C106.902534,652.077209 94.405624,652.088684 81.908745,652.072327 
	C79.116722,652.068665 75.864944,652.252563 76.177559,655.729675 
	C76.299980,657.091309 79.763649,659.128174 81.753891,659.185669 
	C93.408073,659.522339 105.076782,659.332642 116.740120,659.400757 
	C118.885704,659.413269 121.071297,659.596558 123.165329,660.043457 
	C128.563370,661.195557 130.658524,663.835205 130.747070,669.480408 
	C130.828064,674.644592 130.783844,679.810974 130.763046,684.976318 
	C130.729507,693.303284 128.106201,696.090271 119.751785,696.147583 
	C104.589577,696.251587 89.426193,696.183899 74.263298,696.187500 
	C71.430672,696.188171 68.598038,696.187866 65.765411,696.187561 
	C55.704491,696.186523 55.887012,696.184875 55.799015,686.166687 
	C55.761665,681.914612 57.399433,680.680542 61.404934,680.720398 
	C75.899872,680.864807 90.397186,680.785339 104.893532,680.756653 
	C106.550415,680.753418 108.375938,680.927551 109.813492,680.304565 
	C111.115784,679.740173 112.882927,678.149841 112.824707,677.101929 
	C112.759178,675.922607 111.061630,674.456909 109.736404,673.833923 
	C108.486137,673.246277 106.797371,673.537476 105.301338,673.535156 
	C93.804214,673.517578 82.306694,673.578308 70.810036,673.502380 
	C62.095089,673.444885 58.079525,669.327148 58.058167,660.660095 
	C58.047905,656.494507 57.939598,652.324341 58.093781,648.164307 
	C58.330296,641.783020 61.832943,637.985474 67.997025,637.938416 
	C86.324722,637.798706 104.654282,637.919006 122.982712,637.843018 
	C126.443916,637.828674 127.886215,639.327820 127.651222,642.680420 
	C127.604744,643.343628 127.645325,644.012878 127.646835,644.679382 
	C127.663567,652.054016 127.663620,652.054016 119.881348,652.075684 
z"/>
<path fill="#0B0B0B" opacity="1.000000" stroke="none" 
	d="
M139.135010,682.938354 
	C138.825500,672.958740 137.767258,663.284607 138.593750,653.774170 
	C139.407089,644.415283 147.803574,638.015747 157.342773,637.916870 
	C170.989410,637.775452 184.640289,637.750610 198.286179,637.925049 
	C208.685043,638.058044 216.509140,645.799744 216.857681,656.208130 
	C217.097061,663.357117 216.604919,670.536438 216.983551,677.673401 
	C217.502426,687.453918 208.002441,696.145386 198.588959,696.164734 
	C185.107376,696.192444 171.624298,696.283325 158.144531,696.122742 
	C149.143890,696.015564 142.712952,691.738098 139.135010,682.938354 
M195.520081,653.778381 
	C193.453247,653.311462 191.394958,652.492371 189.318024,652.442017 
	C182.326080,652.272522 175.325394,652.481567 168.332199,652.340332 
	C163.338852,652.239502 158.917343,653.364624 156.552338,658.081970 
	C153.967651,663.237427 155.185532,675.256897 158.398621,678.090393 
	C159.555206,679.110352 161.265244,680.050476 162.738708,680.075195 
	C172.895630,680.245544 183.057724,680.244141 193.216125,680.125061 
	C197.422043,680.075867 199.567261,677.564026 199.665024,673.424500 
	C199.759384,669.428955 200.110794,665.369507 199.547607,661.453430 
	C199.181778,658.909668 197.379578,656.572510 195.520081,653.778381 
z"/>
<path fill="#0B0B0B" opacity="1.000000" stroke="none" 
	d="
M267.562683,543.389526 
	C273.339661,547.529968 275.400818,553.157349 275.554321,559.588928 
	C275.705109,565.908508 275.732147,572.238464 275.559143,578.556885 
	C275.237793,590.292053 267.218628,598.082336 255.506577,598.135376 
	C243.193161,598.191223 230.879120,598.107178 218.565674,598.160400 
	C205.355118,598.217590 195.663376,589.869995 196.663330,576.277161 
	C197.089478,570.484436 197.201767,564.588135 196.628891,558.821045 
	C195.741577,549.888672 205.359177,539.454529 215.532715,539.922180 
	C229.148880,540.547974 242.820801,539.868042 256.456604,540.220459 
	C260.088409,540.314392 263.675659,542.130737 267.562683,543.389526 
M230.592972,553.766296 
	C229.759659,553.766357 228.926285,553.774231 228.093063,553.765381 
	C219.568451,553.674805 212.761536,557.483337 213.994385,567.935791 
	C214.208206,569.748596 214.041733,571.603638 214.202850,573.425781 
	C214.751297,579.628357 217.178009,582.052368 223.398056,582.217346 
	C229.560272,582.380859 235.729980,582.264832 241.896408,582.265381 
	C258.138153,582.266968 258.368134,582.035034 258.249786,565.858643 
	C258.186981,557.271973 255.314438,554.198608 246.565598,553.818604 
	C241.575012,553.601929 236.567688,553.770935 230.592972,553.766296 
z"/>
<path fill="#0C0C0C" opacity="1.000000" stroke="none" 
	d="
M477.000000,540.069641 
	C486.328888,540.073364 495.158752,539.998291 503.986328,540.107178 
	C510.382050,540.186035 513.925964,543.497437 514.262024,549.800903 
	C514.501099,554.285767 514.790833,558.863708 514.145081,563.266174 
	C513.718140,566.176758 511.673920,568.850037 510.182465,571.990234 
	C516.616211,577.565186 517.903442,586.036743 519.646179,594.316589 
	C520.186462,596.883423 519.136658,598.132690 516.542847,598.144836 
	C516.376282,598.145630 516.209106,598.140198 516.043213,598.152161 
	C503.346252,599.066589 503.338776,599.068604 500.212128,587.011963 
	C499.752869,585.240906 499.525269,583.403137 498.979645,581.662354 
	C497.822418,577.969971 495.625519,575.932251 491.338623,576.034912 
	C481.682343,576.266113 472.015533,576.197632 462.355499,576.067932 
	C458.534180,576.016602 456.887207,577.410217 457.104034,581.361633 
	C457.341003,585.679382 457.107880,590.021301 457.153442,594.351868 
	C457.181519,597.023010 456.158417,598.251953 453.291138,598.191345 
	C436.912018,597.845093 440.121307,600.423828 439.811371,585.405090 
	C439.680817,579.077637 439.972931,572.737854 439.719147,566.417908 
	C439.575439,562.839600 440.929932,561.804077 444.326904,561.831604 
	C458.818634,561.949280 473.311920,561.883118 487.804626,561.867859 
	C489.301025,561.866333 491.030914,562.206604 492.233215,561.581665 
	C493.665131,560.837463 495.498138,559.270630 495.571869,557.970398 
	C495.641113,556.748901 493.875549,554.957947 492.491638,554.251709 
	C491.136719,553.560181 489.244812,553.836243 487.588348,553.833374 
	C473.428833,553.808655 459.267670,553.698975 445.110687,553.889648 
	C441.005035,553.944885 439.168884,552.672180 439.769348,548.472351 
	C439.909393,547.492859 439.907318,546.459961 439.769958,545.479736 
	C439.196259,541.385742 440.800629,539.896851 445.017639,539.993896 
	C455.506775,540.235291 466.005280,540.070984 477.000000,540.069641 
z"/>
<path fill="#020202" opacity="1.000000" stroke="none" 
	d="
M437.288086,652.033569 
	C437.333679,651.633850 437.379303,651.234070 437.836914,650.424133 
	C438.895660,648.215820 439.208221,646.180908 440.272583,644.678711 
	C441.646149,642.740173 443.421783,640.111450 445.378235,639.762085 
	C449.575439,639.012695 454.012695,639.346375 458.322906,639.647888 
	C459.637909,639.739868 461.564178,640.910767 461.989014,642.045044 
	C463.199554,645.277039 463.707458,648.764832 464.625275,652.115417 
	C466.671204,659.584229 468.787079,667.034119 470.896942,674.485352 
	C472.036255,678.508972 474.216339,678.181213 476.593140,675.636719 
	C477.573212,674.587402 478.319000,673.206543 478.828003,671.847900 
	C482.532074,661.960327 486.116913,652.028015 489.843750,642.149170 
	C490.200867,641.202576 491.241119,639.863342 492.013306,639.829651 
	C496.880524,639.617065 501.761597,639.721924 507.555786,639.721924 
	C501.312866,656.391235 495.721527,672.091858 489.493652,687.535706 
	C487.286285,693.009338 482.534454,696.132141 476.150787,696.316040 
	C469.459320,696.508606 463.856567,694.698303 460.812469,688.383850 
	C459.171906,684.980713 458.355621,681.179626 457.173737,677.556091 
	C455.492157,672.400391 453.816315,667.242859 451.707428,660.763000 
	C450.259705,663.202271 449.507965,664.081177 449.172424,665.097595 
	C447.103210,671.366028 445.045868,677.640808 443.142151,683.960938 
	C440.790070,691.769409 433.119507,697.799866 426.658508,695.980042 
	C419.956024,694.092163 414.145233,690.639526 411.916321,683.232483 
	C411.110809,680.555542 409.908539,677.999756 408.927765,675.373596 
	C404.548645,663.647949 400.184143,651.916931 395.567505,639.525269 
	C400.213226,639.525269 404.386993,639.152405 408.436676,639.698975 
	C410.186523,639.935120 412.470795,641.740845 413.161194,643.396912 
	C417.485474,653.769348 421.378021,664.321045 425.568176,674.751282 
	C426.034393,675.911743 427.549652,677.502563 428.446930,677.422424 
	C429.566376,677.322327 431.077026,675.882935 431.498169,674.695312 
	C433.149536,670.038452 434.557739,665.284485 435.816711,660.503479 
	C436.543762,657.742432 436.812836,654.860901 437.288086,652.033569 
z"/>
<path fill="#0C0C0C" opacity="1.000000" stroke="none" 
	d="
M292.460876,595.528076 
	C284.652893,591.065918 280.961487,584.899902 281.631317,576.019409 
	C282.081299,570.053833 281.689850,564.026672 281.723236,558.027344 
	C281.780670,547.709290 289.300049,540.118591 299.605164,540.084106 
	C315.270447,540.031799 330.937286,540.178589 346.600464,539.991089 
	C350.434143,539.945129 351.900482,540.876160 351.750275,544.982483 
	C351.368744,555.413086 352.767181,553.713196 343.022278,553.799927 
	C332.523926,553.893311 322.023834,553.774475 311.525055,553.841370 
	C302.791229,553.897034 299.900879,556.842041 299.870361,565.509583 
	C299.859802,568.508545 299.797028,571.515015 299.974060,574.505249 
	C300.266052,579.436523 303.538849,582.986145 308.466522,583.168091 
	C315.789215,583.438416 323.140686,583.529358 330.449554,583.134644 
	C332.194183,583.040527 333.818939,580.725098 335.498840,579.431335 
	C333.966064,578.085938 332.586823,575.881531 330.868469,575.574341 
	C327.310120,574.938477 323.565948,575.169495 319.908508,575.310791 
	C316.425842,575.445374 315.250366,574.030090 315.356781,570.569275 
	C315.657623,560.786804 314.052216,561.304993 324.532959,561.562378 
	C330.613068,561.711670 336.982391,561.711609 342.669861,563.516907 
	C351.352264,566.272827 354.348236,572.141418 353.736267,581.265991 
	C353.209442,589.121155 348.308807,596.272522 340.293365,597.092590 
	C324.641235,598.693909 308.811462,600.006531 293.217743,595.946350 
	C293.059204,595.905151 292.915253,595.807800 292.460876,595.528076 
z"/>
<path fill="#0B0B0B" opacity="1.000000" stroke="none" 
	d="
M640.975708,673.897095 
	C634.984253,673.897156 629.488342,673.892883 623.992493,673.898376 
	C617.295837,673.905029 617.292969,673.908569 617.278137,680.856812 
	C617.270325,684.520691 617.186157,688.187439 617.301514,691.847656 
	C617.393616,694.770935 616.204468,696.249023 613.228149,696.162598 
	C612.895508,696.152954 612.562012,696.176819 612.229065,696.171814 
	C597.905823,695.955078 600.105713,698.252808 599.932861,684.221375 
	C599.852905,677.727234 600.060913,671.226990 599.862000,664.737976 
	C599.760010,661.409058 601.005676,660.452087 604.227417,660.483704 
	C618.215515,660.621094 632.205933,660.566711 646.195190,660.513245 
	C648.169006,660.505737 650.374146,660.591980 652.046509,659.769470 
	C653.601929,659.004456 654.588867,657.083862 655.826111,655.672058 
	C654.212341,654.486938 652.717773,653.049683 650.940857,652.209717 
	C649.846191,651.692261 648.320618,652.073425 646.988525,652.073120 
	C632.999023,652.069702 619.007690,651.945618 605.021240,652.151978 
	C601.165527,652.208862 599.749512,651.217773 599.831482,647.155884 
	C600.049438,636.357422 599.628540,637.914368 608.909668,637.891907 
	C626.396484,637.849609 643.883423,637.867798 661.370300,637.884827 
	C670.509460,637.893738 673.618652,640.995789 673.744446,650.139587 
	C673.758179,651.138733 673.752380,652.138062 673.753540,653.137329 
	C673.764771,662.788635 673.764587,662.788635 669.644409,670.179016 
	C676.398010,675.727356 677.219116,684.086365 679.329163,691.862915 
	C680.095337,694.686646 679.145630,696.401306 675.843018,696.195068 
	C673.852417,696.070740 671.847473,696.177856 669.848999,696.177307 
	C662.105103,696.175293 661.737061,695.851562 660.500793,687.968201 
	C658.450989,674.897217 657.311646,673.897217 644.468933,673.897095 
	C643.469727,673.897095 642.470520,673.897095 640.975708,673.897095 
z"/>
<path fill="#0D0D0D" opacity="1.000000" stroke="none" 
	d="
M748.652527,649.422852 
	C746.882568,650.487244 745.198181,651.646973 743.496765,651.672485 
	C732.340149,651.840088 721.177551,651.645325 710.022583,651.861572 
	C707.719849,651.906189 705.150818,652.759583 703.261230,654.053345 
	C702.149231,654.814758 701.844849,657.173096 701.821777,658.822144 
	C701.815857,659.247864 704.238098,660.082153 705.550171,660.093140 
	C717.541199,660.193359 729.533508,660.152100 741.525391,660.154297 
	C748.825684,660.155640 748.825073,660.157349 748.813660,667.462341 
	C748.810913,669.249207 748.813293,671.036011 748.813293,673.594116 
	C732.870422,673.594116 717.488892,673.594116 702.144653,673.594116 
	C702.006592,679.574585 703.895081,681.494080 709.702820,681.541260 
	C721.194336,681.634521 732.687012,681.562622 744.179260,681.585388 
	C750.260803,681.597473 750.260803,681.622559 750.259888,688.674194 
	C750.259033,696.148315 750.259033,696.178772 743.897034,696.189880 
	C731.238892,696.212036 718.580627,696.239258 705.922729,696.185852 
	C692.785461,696.130493 684.377502,687.762451 684.293091,674.733521 
	C684.255310,668.904358 684.232239,663.074158 684.297607,657.245483 
	C684.415833,646.689880 693.172241,637.920044 703.695312,637.873474 
	C716.686279,637.815979 729.682495,638.062500 742.666382,637.755066 
	C747.534912,637.639832 749.439758,639.218506 748.841492,644.002991 
	C748.636169,645.645508 748.757874,647.328979 748.652527,649.422852 
z"/>
<path fill="#279DD2" opacity="1.000000" stroke="none" 
	d="
M330.326294,218.695435 
	C337.959869,225.333313 345.311981,231.752548 353.688965,239.066605 
	C309.432739,244.260132 273.478821,263.622253 241.940231,292.450195 
	C243.784576,281.976105 248.369431,272.881104 253.746338,264.161041 
	C267.686859,241.552887 287.852356,226.612793 311.828979,215.817429 
	C319.344177,212.433762 324.760284,212.042130 330.326294,218.695435 
z"/>
<path fill="#0B0B0B" opacity="1.000000" stroke="none" 
	d="
M434.346802,567.994751 
	C434.345398,572.155457 434.398499,575.818542 434.333160,579.479553 
	C434.148529,589.824097 425.905579,598.064453 415.588501,598.127808 
	C404.436005,598.196228 393.282227,598.211487 382.129913,598.127930 
	C368.283661,598.024231 360.145111,589.795837 360.133667,576.036011 
	C360.124939,565.548889 360.253723,555.059631 360.065552,544.575928 
	C360.002655,541.072388 361.154877,540.026062 364.636993,539.998230 
	C377.394318,539.896545 377.392120,539.777100 377.393829,552.277405 
	C377.394806,559.268799 377.305084,566.261902 377.432983,573.250977 
	C377.545532,579.402100 380.913208,582.774536 387.063293,582.903625 
	C393.386078,583.036438 399.714355,582.989197 406.039185,582.921204 
	C412.883087,582.847595 416.140289,579.660339 416.199402,572.883667 
	C416.280762,563.562500 416.385529,554.236206 416.152313,544.920288 
	C416.057434,541.130493 417.456360,539.961914 421.054108,540.037170 
	C437.266083,540.376160 433.991272,537.946960 434.330505,553.014282 
	C434.439148,557.839233 434.347290,562.668762 434.346802,567.994751 
z"/>
<path fill="#0B0B0B" opacity="1.000000" stroke="none" 
	d="
M243.278717,659.774170 
	C256.865204,660.060730 270.028473,660.240173 283.187988,660.090454 
	C287.367828,660.042969 288.675110,661.522827 288.589691,665.621887 
	C288.417328,673.893738 288.609985,673.899231 280.522430,673.900452 
	C269.357727,673.902039 258.188751,674.077637 247.030518,673.809143 
	C242.920731,673.710327 241.743088,675.260986 241.909256,679.031067 
	C242.099838,683.355164 242.418350,687.757874 241.842636,692.012939 
	C240.793091,699.769958 234.503952,695.070190 230.668228,696.048340 
	C227.821381,696.774231 224.532135,696.763855 224.580978,691.983154 
	C224.710358,679.320068 224.452347,666.651184 224.705261,653.991760 
	C224.871262,645.682495 232.707382,638.150574 241.531891,637.979614 
	C256.190582,637.695618 270.858765,637.931702 285.522278,637.839050 
	C288.269043,637.821716 289.542023,638.773743 289.472015,641.574890 
	C289.389771,644.867737 289.452789,648.164246 289.452789,652.073547 
	C282.281677,652.073547 275.665833,652.072693 269.049988,652.073730 
	C262.384491,652.074707 255.716858,651.974304 249.054169,652.112183 
	C243.678131,652.223389 241.832535,654.575439 243.278717,659.774170 
z"/>
<path fill="#0C0C0C" opacity="1.000000" stroke="none" 
	d="
M117.367966,551.013855 
	C117.367310,540.002930 117.372017,540.211487 127.984299,539.971863 
	C132.732208,539.864685 134.812134,541.273682 134.182068,546.179810 
	C133.909042,548.305786 134.055862,550.507812 134.205902,552.661743 
	C134.578583,558.012512 138.114319,561.663086 143.485901,561.814270 
	C150.303192,562.006226 157.139206,562.051453 163.950928,561.768860 
	C170.124405,561.512756 173.456696,557.630188 173.539230,551.428345 
	C173.711487,538.485352 172.006638,540.376770 185.059341,539.989563 
	C189.555557,539.856140 190.918152,541.512573 190.574890,545.802307 
	C190.244095,549.936340 190.505890,554.117676 190.503189,558.278198 
	C190.496490,568.552307 186.379318,574.838074 176.555832,575.421692 
	C161.837402,576.296143 146.978806,576.122742 132.259018,575.170593 
	C123.434898,574.599854 117.739510,566.818054 117.394821,557.989014 
	C117.310478,555.828674 117.372887,553.662598 117.367966,551.013855 
z"/>
<path fill="#4C4C4C" opacity="1.000000" stroke="none" 
	d="
M436.980957,652.226379 
	C436.812836,654.860901 436.543762,657.742432 435.816711,660.503479 
	C434.557739,665.284485 433.149536,670.038452 431.498169,674.695312 
	C431.077026,675.882935 429.566376,677.322327 428.446930,677.422424 
	C427.549652,677.502563 426.034393,675.911743 425.568176,674.751282 
	C421.378021,664.321045 417.485474,653.769348 413.161194,643.396912 
	C412.470795,641.740845 410.186523,639.935120 408.436676,639.698975 
	C404.386993,639.152405 400.213226,639.525269 395.567505,639.525269 
	C400.184143,651.916931 404.548645,663.647949 408.927765,675.373596 
	C409.908539,677.999756 411.110809,680.555542 411.916321,683.232483 
	C414.145233,690.639526 419.956024,694.092163 426.658508,695.980042 
	C433.119507,697.799866 440.790070,691.769409 443.142151,683.960938 
	C445.045868,677.640808 447.103210,671.366028 449.172424,665.097595 
	C449.507965,664.081177 450.259705,663.202271 451.707428,660.763000 
	C453.816315,667.242859 455.492157,672.400391 457.173737,677.556091 
	C458.355621,681.179626 459.171906,684.980713 460.812469,688.383850 
	C463.856567,694.698303 469.459320,696.508606 476.150787,696.316040 
	C482.534454,696.132141 487.286285,693.009338 489.493652,687.535706 
	C495.721527,672.091858 501.312866,656.391235 507.555786,639.721924 
	C501.761597,639.721924 496.880524,639.617065 492.013306,639.829651 
	C491.241119,639.863342 490.200867,641.202576 489.843750,642.149170 
	C486.116913,652.028015 482.532074,661.960327 478.828003,671.847900 
	C478.319000,673.206543 477.573212,674.587402 476.593140,675.636719 
	C474.216339,678.181213 472.036255,678.508972 470.896942,674.485352 
	C468.787079,667.034119 466.671204,659.584229 464.625275,652.115417 
	C463.707458,648.764832 463.199554,645.277039 461.989014,642.045044 
	C461.564178,640.910767 459.637909,639.739868 458.322906,639.647888 
	C454.012695,639.346375 449.575439,639.012695 445.378235,639.762085 
	C443.421783,640.111450 441.646149,642.740173 440.272583,644.678711 
	C439.208221,646.180908 438.895660,648.215820 437.929077,650.136230 
	C438.411957,646.595215 438.906555,642.818970 440.183960,639.329346 
	C440.632599,638.103699 442.929230,637.078125 444.510803,636.848755 
	C447.285065,636.446289 450.158600,636.725098 452.990570,636.724731 
	C462.539886,636.723450 462.614532,636.703796 465.085052,645.624329 
	C467.383453,653.923523 469.441010,662.289551 471.748230,670.586182 
	C472.178375,672.132996 473.288483,673.490723 474.084717,674.935730 
	C475.213898,673.592712 476.803680,672.425659 477.395203,670.877319 
	C480.525696,662.683044 483.402710,654.391907 486.373108,646.136414 
	C487.046875,644.263855 487.373322,642.116272 488.528900,640.608093 
	C489.760223,639.001038 491.644653,637.250488 493.495056,636.904175 
	C496.714783,636.301514 500.127411,636.711487 503.459015,636.728577 
	C509.960052,636.761963 510.508850,637.471252 508.245026,643.668396 
	C504.609314,653.621033 500.851105,663.528870 497.134186,673.451782 
	C495.567871,677.633301 494.153717,681.883606 492.357788,685.965088 
	C488.331360,695.115784 482.584503,698.810852 473.922241,698.139587 
	C464.510590,697.410339 459.555054,693.251160 456.743896,683.551392 
	C455.042816,677.681885 453.485291,671.770752 451.418915,664.264160 
	C449.400452,670.469482 447.850800,675.310791 446.246887,680.133972 
	C445.357086,682.809692 444.700928,685.631226 443.372192,688.079102 
	C440.189178,693.943115 435.680878,698.113281 428.407776,697.832336 
	C420.263763,697.517761 414.330353,693.381775 411.311584,686.129456 
	C405.967621,673.291138 401.293182,660.174011 396.342987,647.171936 
	C395.415375,644.735413 394.508667,642.290894 392.588409,639.890808 
	C392.588409,642.580811 392.424591,645.283264 392.627258,647.957947 
	C392.922058,651.848083 391.291534,653.400146 387.422302,653.315857 
	C380.762085,653.170715 374.090851,653.445496 367.434937,653.223511 
	C363.707581,653.099121 362.461609,654.487793 362.513214,658.144775 
	C362.668335,669.137329 362.420410,680.136292 362.637207,691.126770 
	C362.723633,695.508606 361.120178,697.013062 356.801422,696.881592 
	C343.309937,696.470825 344.789490,699.044556 344.721527,685.071167 
	C344.653503,671.078186 344.827637,657.083008 344.640106,643.092224 
	C344.579651,638.583862 346.004852,636.959473 350.699585,637.127747 
	C364.658875,637.628113 378.633636,637.820435 392.602997,637.853882 
	C398.005676,637.866821 403.407654,637.089417 408.814880,636.751343 
	C411.569824,636.579224 413.287903,637.531067 414.356018,640.518372 
	C418.316681,651.595703 422.639923,662.543518 426.848419,673.531799 
	C427.061554,674.088318 427.474548,674.568298 428.738220,676.604797 
	C431.659943,667.700195 434.166870,660.059692 436.980957,652.226379 
M345.906982,690.283813 
	C345.477203,693.684937 346.833099,695.281067 350.383698,694.919922 
	C352.030945,694.752380 353.727325,694.735840 355.370422,694.923157 
	C359.858185,695.434814 361.105743,693.358826 361.013947,689.112061 
	C360.787476,678.631531 361.083038,668.140015 360.877686,657.658630 
	C360.787842,653.073547 362.539276,651.435364 367.070618,651.643311 
	C373.215729,651.925354 379.395752,651.470825 385.537933,651.782898 
	C390.688965,652.044739 391.040497,649.229370 391.047119,645.229797 
	C391.053558,641.324341 390.521484,638.952881 385.695007,639.063660 
	C374.217041,639.327026 362.725891,639.297363 351.246460,639.066833 
	C347.167572,638.984924 345.754333,640.169556 345.818054,644.391296 
	C346.044159,659.367065 345.905853,674.348328 345.906982,690.283813 
z"/>
<path fill="#0B0B0B" opacity="1.000000" stroke="none" 
	d="
M334.813416,695.366699 
	C323.184967,695.358582 324.689636,696.077026 324.636353,685.825073 
	C324.586945,676.326599 324.444611,666.822632 324.707001,657.331177 
	C324.824799,653.070007 323.259430,651.831665 319.187347,651.999084 
	C312.532867,652.272522 305.855957,651.954834 299.194244,652.119080 
	C295.768250,652.203552 294.191772,650.997375 294.567413,647.477844 
	C294.708069,646.159729 294.691010,644.804749 294.570740,643.482544 
	C294.205841,639.471497 295.773926,637.751648 299.993134,637.813599 
	C312.155579,637.992065 324.323853,637.984924 336.486450,637.812622 
	C340.272919,637.759033 341.411163,639.249268 341.384979,642.833252 
	C341.271729,658.330322 341.151276,673.832275 341.446777,689.324585 
	C341.539581,694.189941 340.053833,696.140747 334.813416,695.366699 
z"/>
<path fill="#0D0D0D" opacity="1.000000" stroke="none" 
	d="
M524.743286,553.714478 
	C523.868530,549.547607 523.326294,545.458496 523.133240,541.353027 
	C523.115540,540.978027 525.331787,540.130920 526.514893,540.122925 
	C539.494446,540.034912 552.474915,540.100830 565.454895,540.049011 
	C568.454956,540.036987 569.514709,541.342041 569.499329,544.299561 
	C569.415527,560.441101 569.417175,576.583618 569.497925,592.725159 
	C569.514771,596.093201 568.244019,597.573364 564.798218,597.532959 
	C550.005920,597.359253 551.999878,599.084595 551.912598,585.432922 
	C551.856140,576.613403 551.795715,567.791565 551.943298,558.974182 
	C552.007996,555.109436 550.536011,553.652039 546.635498,553.766174 
	C539.486572,553.975464 532.326294,553.801819 524.743286,553.714478 
z"/>
<path fill="#0C0C0C" opacity="1.000000" stroke="none" 
	d="
M608.957886,540.064209 
	C610.448669,540.064209 611.446899,540.063965 612.445068,540.064209 
	C619.746155,540.065857 619.746155,540.065857 619.742859,547.235229 
	C619.739807,553.818298 619.739807,553.820801 613.349121,553.824768 
	C607.526306,553.828369 601.670044,554.212402 595.890442,553.712952 
	C590.508606,553.247803 589.505676,555.502319 589.630554,560.267944 
	C589.918152,571.240540 589.598206,582.227905 589.783325,593.204956 
	C589.848633,597.076477 588.650879,598.379150 584.647034,598.247803 
	C570.759277,597.792114 572.884216,600.130920 572.767822,586.336365 
	C572.651306,572.528992 572.867920,558.718018 572.662048,544.912659 
	C572.605652,541.133179 573.922974,539.972290 577.521912,540.021057 
	C587.834717,540.160889 598.150635,540.066467 608.957886,540.064209 
z"/>
<path fill="#DFA749" opacity="1.000000" stroke="none" 
	d="
M441.314362,355.848083 
	C442.839600,354.853180 444.049194,354.109833 445.300964,353.070801 
	C460.375854,341.616913 475.406860,330.456543 490.443237,319.303345 
	C492.268982,317.949097 494.123199,316.633240 497.016876,315.928925 
	C496.451630,317.485931 496.187134,319.250824 495.276031,320.568787 
	C481.815491,340.039886 468.271454,359.453308 454.725250,378.865112 
	C454.462830,379.241211 453.935547,379.432526 453.198883,379.735840 
	C455.533630,375.781769 458.144684,371.762543 460.879242,367.829163 
	C469.956604,354.772247 479.090393,341.754547 488.161926,328.693542 
	C488.937195,327.577271 489.411438,326.251892 490.025482,325.023621 
	C489.700592,324.684814 489.375702,324.346008 489.050781,324.007202 
	C487.894196,324.622925 486.633881,325.099945 485.596924,325.875610 
	C473.769440,334.722900 462.009705,343.661041 450.164398,352.484314 
	C437.200623,362.140656 423.353699,370.419128 409.238342,378.246887 
	C396.919769,385.078217 384.807709,392.382019 372.067841,398.327393 
	C357.285858,405.225769 341.961853,410.979401 326.777161,416.987366 
	C322.576691,418.649353 318.034882,419.448486 313.364624,420.452026 
	C318.386536,418.182159 323.625458,415.905487 329.011841,414.058838 
	C355.319458,405.039734 380.323456,393.189545 404.256989,379.119934 
	C416.711182,371.798553 428.764374,363.795044 441.314362,355.848083 
z"/>
<path fill="#DFA749" opacity="1.000000" stroke="none" 
	d="
M38.293465,259.718353 
	C37.308548,264.584778 35.917198,269.615540 34.782051,274.703461 
	C32.520256,284.841248 29.115953,294.934692 28.511303,305.183807 
	C27.526442,321.877716 26.817360,338.658508 30.353481,355.384888 
	C33.092010,368.338562 36.232662,381.065735 41.766594,393.066650 
	C51.437126,414.038208 65.216446,432.021515 82.369507,447.451263 
	C82.966339,447.988190 83.352325,448.759521 83.878197,449.759705 
	C78.710625,445.532928 73.032188,441.399353 68.372604,436.329346 
	C46.944328,413.013733 33.394714,385.591492 27.731558,354.479034 
	C24.412582,336.245117 23.445263,317.768646 27.184978,299.459503 
	C29.700689,287.142944 33.140175,275.013824 36.248730,262.821838 
	C36.516911,261.770020 37.403538,260.875916 38.293465,259.718353 
z"/>
<path fill="#111111" opacity="1.000000" stroke="none" 
	d="
M153.999481,583.309570 
	C157.987717,583.313721 161.529861,582.990845 164.952957,583.487915 
	C166.263580,583.678284 168.288269,585.722290 168.313309,586.955444 
	C168.587646,600.464233 169.251297,598.016479 157.865250,598.182678 
	C153.040344,598.253113 148.212524,598.131348 143.387802,598.208008 
	C140.640671,598.251587 139.471207,597.051147 139.502258,594.317871 
	C139.653778,580.982849 137.887360,583.617432 149.512100,583.314087 
	C150.842499,583.279358 152.174606,583.309509 153.999481,583.309570 
z"/>
<path fill="#249CD2" opacity="1.000000" stroke="none" 
	d="
M282.111359,214.128754 
	C281.824158,214.290497 281.537750,214.453644 280.706360,214.811798 
	C277.998474,216.217697 275.836334,217.429962 273.674225,218.642242 
	C273.222595,218.229614 272.770966,217.816971 272.319336,217.404343 
	C278.241272,208.592041 284.117035,199.747543 290.188141,191.039261 
	C290.596741,190.453171 292.844208,190.389709 293.617828,190.945023 
	C297.604828,193.806824 301.389862,196.950058 305.603638,200.278030 
	C302.633087,201.568375 300.090973,202.330795 297.917053,203.684479 
	C292.558472,207.021301 287.368896,210.629608 282.111359,214.128754 
z"/>
<path fill="#DFA749" opacity="1.000000" stroke="none" 
	d="
M212.243439,424.345703 
	C205.857132,422.236511 198.892624,420.559998 192.791748,417.278046 
	C174.536575,407.457611 162.191803,392.244843 154.726608,372.989441 
	C148.365646,356.582275 147.321274,339.842072 151.662567,322.792969 
	C151.973846,321.570557 152.864944,320.495789 153.809494,319.167419 
	C153.571686,323.345367 152.994705,327.706329 152.452591,332.071625 
	C148.624863,362.893433 158.838211,388.293793 182.560532,408.063660 
	C190.458572,414.645782 199.430084,419.839264 209.621338,422.447693 
	C210.512100,422.675720 211.250717,423.498108 212.243439,424.345703 
z"/>
<path fill="#DFA749" opacity="1.000000" stroke="none" 
	d="
M154.626068,317.218079 
	C155.731781,312.723724 156.582413,307.783966 158.644104,303.415802 
	C166.456436,286.863525 178.174911,273.434235 192.825485,262.546387 
	C195.882858,260.274261 199.106232,258.217224 202.321671,256.168671 
	C204.895096,254.529114 205.242599,252.900360 203.795151,249.980545 
	C199.248093,240.808151 194.926620,231.509003 190.948441,222.077271 
	C189.457657,218.542831 189.151016,214.508911 188.485260,210.401215 
	C189.560379,212.337738 190.396591,214.601135 191.358932,216.809570 
	C196.237320,228.004654 200.900208,239.304947 206.193802,250.301102 
	C207.861160,253.764664 207.256378,255.148117 204.353928,256.949768 
	C189.082123,266.429504 175.890427,278.193909 166.565979,293.699249 
	C162.681747,300.158173 159.948959,307.308136 156.660873,314.128601 
	C156.172882,315.140839 155.509384,316.068420 154.626068,317.218079 
z"/>
<path fill="#DFA749" opacity="1.000000" stroke="none" 
	d="
M307.276398,480.392578 
	C312.167816,477.875488 317.249359,475.216156 322.571838,473.189545 
	C351.478394,462.183044 377.984924,447.050507 402.049927,427.612274 
	C404.228210,425.852753 406.776031,424.550751 409.489624,422.972656 
	C404.888458,427.204346 400.199158,431.833466 394.969086,435.738312 
	C369.972412,454.401306 342.590424,468.621765 313.158783,478.915771 
	C311.332245,479.554657 309.439606,480.004517 307.276398,480.392578 
z"/>
<path fill="#67B0CF" opacity="1.000000" stroke="none" 
	d="
M282.465454,214.069031 
	C287.368896,210.629608 292.558472,207.021301 297.917053,203.684479 
	C300.090973,202.330795 302.633087,201.568375 305.603638,200.278030 
	C301.389862,196.950058 297.604828,193.806824 293.617828,190.945023 
	C292.844208,190.389709 290.596741,190.453171 290.188141,191.039261 
	C284.117035,199.747543 278.241272,208.592041 272.319336,217.404343 
	C272.770966,217.816971 273.222595,218.229614 273.674225,218.642242 
	C275.836334,217.429962 277.998474,216.217697 280.498718,214.945892 
	C276.982391,218.581177 273.127960,222.275970 269.273499,225.970764 
	C268.848145,225.808990 268.422760,225.647217 267.997375,225.485458 
	C267.997375,224.388077 267.571411,223.027924 268.061768,222.233017 
	C274.581024,211.664551 281.227203,201.174347 287.845367,190.666946 
	C289.953400,187.320084 292.469055,187.432037 295.342529,189.709183 
	C299.590424,193.075485 303.892609,196.373276 309.046021,200.380051 
	C299.624664,205.276077 291.222107,209.642670 282.465454,214.069031 
z"/>
<path fill="#DFA749" opacity="1.000000" stroke="none" 
	d="
M218.294540,495.408752 
	C219.540298,494.524078 221.293549,493.061707 222.943512,493.170166 
	C240.348541,494.314514 257.234406,490.431213 274.186523,487.734497 
	C283.502197,486.252533 292.521057,482.914917 301.685638,480.458374 
	C302.620239,480.207886 303.636749,480.263153 305.040314,480.294373 
	C302.035950,481.859833 298.727692,483.822723 295.155365,484.662964 
	C282.115417,487.729980 269.091064,491.143707 255.862213,493.045074 
	C243.625122,494.803864 231.133560,494.792267 218.294540,495.408752 
z"/>
<path fill="#DFA749" opacity="1.000000" stroke="none" 
	d="
M302.767639,422.558807 
	C298.084229,424.373627 293.115021,426.955200 287.916565,427.557037 
	C274.094086,429.157318 260.180603,430.591461 246.287979,430.749695 
	C236.955643,430.855988 227.588745,428.737000 218.259872,427.449921 
	C216.891266,427.261047 215.648102,426.162872 214.162903,425.160675 
	C217.999023,425.399231 222.061478,425.754333 226.031921,426.561798 
	C243.360458,430.085999 260.684753,429.526978 278.010376,426.701080 
	C286.148773,425.373627 294.256012,423.854980 302.767639,422.558807 
z"/>
<path fill="#DFA749" opacity="1.000000" stroke="none" 
	d="
M140.276474,482.950684 
	C145.104126,483.847656 150.135132,484.951599 155.097824,486.305969 
	C171.258499,490.716339 187.587479,493.719910 204.451965,493.138672 
	C206.794281,493.057953 209.175064,494.092865 211.787415,494.920380 
	C205.597122,495.346405 199.075790,496.173431 192.733521,495.443848 
	C175.484436,493.459564 158.326736,490.740356 141.969482,484.497864 
	C141.390869,484.277069 140.952347,483.689178 140.276474,482.950684 
z"/>
<path fill="#DFA749" opacity="1.000000" stroke="none" 
	d="
M164.765320,154.584900 
	C161.404648,156.083069 157.729141,157.773376 153.871948,158.734680 
	C135.528732,163.306305 118.793793,171.376755 102.991631,181.573212 
	C102.180832,182.096359 101.208328,182.368912 99.930954,182.694473 
	C105.900269,178.495468 112.066147,174.037994 118.637787,170.292465 
	C131.987000,162.683975 146.557938,158.178253 161.393997,154.496841 
	C162.331787,154.264145 163.373444,154.449982 164.765320,154.584900 
z"/>
<path fill="#DFA749" opacity="1.000000" stroke="none" 
	d="
M84.004456,450.402954 
	C86.608002,451.639557 89.587791,452.856049 91.968193,454.804718 
	C105.318298,465.733551 120.657486,473.111206 136.235306,480.107880 
	C136.923248,480.416840 137.424683,481.141083 138.108353,481.978516 
	C127.468979,477.230896 116.389313,472.782013 106.111427,466.925934 
	C98.250031,462.446716 91.402451,456.188110 84.004456,450.402954 
z"/>
<path fill="#DFA749" opacity="1.000000" stroke="none" 
	d="
M64.530807,214.934616 
	C63.426483,217.424072 62.040581,220.025574 60.565922,222.575745 
	C53.949848,234.017181 47.312847,245.446533 40.658306,256.865631 
	C40.426556,257.263306 39.929134,257.506134 39.207813,257.911987 
	C42.681389,249.883682 45.985130,241.463364 50.481377,233.737015 
	C54.350689,227.087967 59.580235,221.230484 64.530807,214.934616 
z"/>
<path fill="#DFA749" opacity="1.000000" stroke="none" 
	d="
M98.617752,182.997818 
	C96.867180,184.899109 94.747398,186.847488 92.683517,188.853394 
	C84.637718,196.673218 76.617813,204.519684 68.563896,212.331116 
	C67.628860,213.237991 66.541740,213.988098 65.181976,214.834717 
	C68.136589,210.798538 71.002426,206.265076 74.823677,202.778824 
	C82.360497,195.902725 90.426857,189.607056 98.617752,182.997818 
z"/>
<path fill="#DFA749" opacity="1.000000" stroke="none" 
	d="
M186.369720,195.665802 
	C185.465302,193.989197 184.123032,191.967590 184.086014,189.922363 
	C183.865295,177.729034 183.945923,165.530243 183.881409,152.911224 
	C184.759171,153.395279 186.623810,154.539932 186.463806,155.172379 
	C183.071793,168.580215 185.872452,181.941269 186.369720,195.665802 
z"/>
<path fill="#DFA749" opacity="1.000000" stroke="none" 
	d="
M438.221558,396.785339 
	C442.635437,391.225952 447.381409,385.637360 452.443604,379.958435 
	C448.024475,385.497437 443.289062,391.126801 438.221558,396.785339 
z"/>
<path fill="#DFA749" opacity="1.000000" stroke="none" 
	d="
M411.399750,422.015900 
	C416.090546,417.412872 421.116974,412.723267 426.475372,407.959839 
	C421.783356,412.567108 416.759369,417.248199 411.399750,422.015900 
z"/>
<path fill="#DFA749" opacity="1.000000" stroke="none" 
	d="
M178.721283,152.441589 
	C176.389481,156.636093 172.359940,154.577866 168.454041,154.560104 
	C171.508820,153.687042 174.901459,152.992645 178.721283,152.441589 
z"/>
<path fill="#DFA749" opacity="1.000000" stroke="none" 
	d="
M429.229614,405.792572 
	C431.646606,402.886292 434.403931,399.958588 437.486847,396.959686 
	C435.064941,399.849396 432.317444,402.810272 429.229614,405.792572 
z"/>
<path fill="#DFA749" opacity="1.000000" stroke="none" 
	d="
M188.478790,206.779358 
	C187.610931,204.912384 186.879562,202.666626 186.257111,199.996719 
	C187.115784,201.848557 187.865524,204.124557 188.478790,206.779358 
z"/>
<path fill="#DFA749" opacity="1.000000" stroke="none" 
	d="
M310.777130,420.444336 
	C309.332489,421.294678 307.519470,422.022644 305.422302,422.593018 
	C306.894989,421.730957 308.651886,421.026459 310.777130,420.444336 
z"/>
<path fill="#DFA749" opacity="1.000000" stroke="none" 
	d="
M427.200012,407.787964 
	C427.342316,407.217438 427.796631,406.628662 428.533020,405.966187 
	C428.380737,406.518219 427.946411,407.143982 427.200012,407.787964 
z"/>



<path fill="#0D0D0D" opacity="1.000000" stroke="none" 
	d="
M345.906311,689.805664 
	C345.905853,674.348328 346.044159,659.367065 345.818054,644.391296 
	C345.754333,640.169556 347.167572,638.984924 351.246460,639.066833 
	C362.725891,639.297363 374.217041,639.327026 385.695007,639.063660 
	C390.521484,638.952881 391.053558,641.324341 391.047119,645.229797 
	C391.040497,649.229370 390.688965,652.044739 385.537933,651.782898 
	C379.395752,651.470825 373.215729,651.925354 367.070618,651.643311 
	C362.539276,651.435364 360.787842,653.073547 360.877686,657.658630 
	C361.083038,668.140015 360.787476,678.631531 361.013947,689.112061 
	C361.105743,693.358826 359.858185,695.434814 355.370422,694.923157 
	C353.727325,694.735840 352.030945,694.752380 350.383698,694.919922 
	C346.833099,695.281067 345.477203,693.684937 345.906311,689.805664 
z"/>
</svg>