<svg id="Layer_1" data-name="Layer 1" xmlns="http://www.w3.org/2000/svg" viewBox="0 0 378.57 128.45">
    <defs>
        <style>.cls-1{fill:#00467f;}.cls-2{fill:#fff;}</style>
    </defs>
    <polygon class="cls-1"
             points="229.93 7.09 229.93 3.27 217.27 3.27 217.27 27.27 230.21 27.28 230.21 23.46 221.08 23.46 221.08 17.07 229.63 17.07 229.63 13.25 221.08 13.25 221.08 7.09 229.93 7.09"/>
    <path class="cls-1"
          d="M142,27.58c3.13,0,5.58-.91,7.27-2.71a10.24,10.24,0,0,0,2.41-7.12V3.27h-3.83v13.9c0,2.45-.35,3.85-1.2,4.8A5.93,5.93,0,0,1,142,23.69a5.38,5.38,0,0,1-4.19-1.83c-.88-1-1.15-2-1.15-4.48V3.28h-3.82V18.09a9.42,9.42,0,0,0,2.83,7.21A9.21,9.21,0,0,0,142,27.58Z"/>
    <path class="cls-1"
          d="M177.29,27.27v-24h-3.65V20.44c-.33-.43-13.51-17.17-13.51-17.17h-3v24h3.64v-17c.35.43,13.34,17,13.34,17Z"/>
    <path class="cls-1" d="M211.78,3.27h-3.84s-5.79,15.08-6,15.54L196,3.27h-3.88l9.34,24.2h1.18Z"/>
    <path class="cls-1"
          d="M248.14,27.27h4.58l-.63-1c-1.26-1.93-1.78-2.73-2.62-4.23-.73-1.33-1.47-2.7-2.22-3.81a12.07,12.07,0,0,0-2-2.34,6.26,6.26,0,0,0,3.14-5.76,6.7,6.7,0,0,0-2-5,7.5,7.5,0,0,0-5.29-1.86h-5.68v24h3.83V17.21h.84c1.31,0,2.45.37,5.18,5.1Zm-3.69-17.14a3.22,3.22,0,0,1-.81,2.33,3.89,3.89,0,0,1-2.88.94h-1.51V7h1.51c2.49,0,3.66,1,3.69,3.1Z"/>
    <path class="cls-1"
          d="M263.18,7.09a6.35,6.35,0,0,1,4.59,2.28l.55.58.17.18v-5l0,0-.13-.1a8.29,8.29,0,0,0-4.9-1.71,6.84,6.84,0,0,0-4.88,1.8,6.53,6.53,0,0,0-1.85,4.8c0,3.33,2.31,5.17,4.69,6.77l.58.4,1.06.73a10.68,10.68,0,0,1,1.4,1.14,3.59,3.59,0,0,1,1.29,2.65,2.72,2.72,0,0,1-3,2.52c-1.88,0-3.72-1.14-5.16-3.19l-.58-.82-.18-.26.12,5.81,0,0a9,9,0,0,0,6.1,2.24,6.07,6.07,0,0,0,4.5-1.92,7,7,0,0,0,1.76-4.78c0-4-2.43-5.85-4.7-7.32l-1.65-1a12.92,12.92,0,0,1-1.4-1,3,3,0,0,1-1.27-2.37C260.29,8.05,261.48,7.09,263.18,7.09Z"/>
    <path class="cls-1"
          d="M314,27.28h3.83V14.75l8.12-11.48h-4.62S316,10.73,315.85,11c-.15-.23-5.39-7.68-5.39-7.68h-4.62L314,14.72Z"/>
    <rect class="cls-1" x="182.8" y="3.27" width="3.82" height="24"/>
    <rect class="cls-1" x="274.8" y="3.27" width="3.83" height="24"/>
    <polygon class="cls-1"
             points="291.25 27.27 295.06 27.27 295.06 7.09 302.28 7.09 302.28 3.27 284.02 3.27 284.02 7.09 291.25 7.09 291.25 27.27"/>
    <polygon class="cls-1"
             points="367.03 16.34 375.07 16.34 375.07 12.58 367.03 12.58 367.03 7.04 375.07 7.04 375.07 3.27 363.25 3.27 363.25 26.98 367.03 26.98 367.03 16.34"/>
    <path class="cls-1"
          d="M346.21,27.59a11,11,0,0,0,8.5-3.69,12.75,12.75,0,0,0,3.06-8.47,12.71,12.71,0,0,0-3.1-8.54,11.45,11.45,0,0,0-16.73,0,12.65,12.65,0,0,0-3.13,8.52,12.78,12.78,0,0,0,3.07,8.48A11,11,0,0,0,346.21,27.59ZM340.85,9.46a7.27,7.27,0,0,1,5.42-2.35c4.43,0,7.63,3.5,7.63,8.32a8.71,8.71,0,0,1-2.18,6,7.46,7.46,0,0,1-10.87,0,8.72,8.72,0,0,1-2.17-6A8.69,8.69,0,0,1,340.85,9.46Z"/>
    <path class="cls-1"
          d="M296.93,34.77h-3.52L281.19,66.53h5.2l3.45-9h11c.06.16,3.64,9,3.64,9h5.21Zm-5.15,17.76c.13-.33,3.14-8.43,3.34-9,.24.57,3.49,8.67,3.61,9Z"/>
    <polygon class="cls-1"
             points="276.02 61.51 263.61 61.51 263.61 34.95 258.59 34.95 258.59 66.53 276.02 66.53 276.02 61.51"/>
    <path class="cls-1"
          d="M141.21,57.54h10.94c.06.16,3.66,9,3.66,9H161L148.3,34.77h-3.53L132.56,66.53h5.2Zm5.29-14c.22.57,3.47,8.67,3.6,9h-6.94C143.27,52.2,146.28,44.1,146.5,43.52Z"/>
    <path class="cls-1"
          d="M223,64V57.86l-.21.14-.66.47a16.15,16.15,0,0,1-9.25,3.35,10.28,10.28,0,0,1-7.64-3,11.25,11.25,0,0,1-2.92-8,11.49,11.49,0,0,1,3-8,10.06,10.06,0,0,1,7.42-3.15c3,0,5.87,1,9.17,3.08l.64.42.21.13-.25-6.15-.08,0c-3.85-1.8-6.73-2.56-9.64-2.56-9,0-15.59,7-15.59,16.64a17,17,0,0,0,3.66,10.34,14.38,14.38,0,0,0,11.68,5.4,19.18,19.18,0,0,0,10.42-2.88Z"/>
    <path class="cls-1" d="M238.58,49.91,251,35h-6.33l-10.73,13V35h-5V66.53h5V52.3l13.18,14.23H254Z"/>
    <path class="cls-1"
          d="M372.28,40.07A14.3,14.3,0,0,0,360.77,35H349.56V66.53h11.25a14.41,14.41,0,0,0,11.08-4.87,16.68,16.68,0,0,0,4-10.92A17,17,0,0,0,372.28,40.07Zm-12,21.44h-5.74V40h5.54a10.43,10.43,0,0,1,8.06,3.18,11.13,11.13,0,0,1,2.58,7.59C370.76,54.74,368.55,61.51,360.32,61.51Z"/>
    <path class="cls-1"
          d="M178.59,66.93c4.13,0,7.34-1.2,9.55-3.56s3.18-5.45,3.18-9.37V35h-5V53.25c0,3.22-.46,5-1.59,6.3a7.8,7.8,0,0,1-6,2.27,7,7,0,0,1-5.52-2.41c-1.15-1.29-1.51-2.66-1.51-5.9V35h-5V54.46c0,4,1.29,7.26,3.72,9.48A12.14,12.14,0,0,0,178.59,66.93Z"/>
    <path class="cls-1"
          d="M336.53,57.54C336.08,57,318.75,35,318.75,35h-3.94V66.53h4.78V44.09l17.56,22.44h4.18V35h-4.8Z"/>
    <rect class="cls-1" x="132.74" y="105" width="242.9" height="1.42"/>
    <path class="cls-1"
          d="M157.94,74.06h2.71L153,93.12h-.6l-6.2-15.43-6.27,15.43h-.58l-7.65-19.06h2.73l5.23,13.08,5.27-13.08h2.57l5.29,13.08Z"/>
    <path class="cls-1"
          d="M168.6,85.53v5.31c0,.42.14.64.43.64a2.93,2.93,0,0,0,1.4-.67v1.51a8.07,8.07,0,0,1-1.35.74,3,3,0,0,1-1.07.2c-1.06,0-1.68-.42-1.87-1.25a5.41,5.41,0,0,1-3.36,1.22,3,3,0,0,1-2.17-.86,2.94,2.94,0,0,1-.87-2.17,3,3,0,0,1,.85-2.11A5.87,5.87,0,0,1,163,86.61l3.16-1.08v-.67a2,2,0,0,0-2.25-2.25A5.45,5.45,0,0,0,160,84.7V82a5.1,5.1,0,0,1,4.14-1.7,4.78,4.78,0,0,1,3.25,1.06,3.19,3.19,0,0,1,.73.9,3.25,3.25,0,0,1,.42,1.13A16.32,16.32,0,0,1,168.6,85.53Zm-2.44,5V86.86l-1.65.64a5.56,5.56,0,0,0-1.79,1,1.69,1.69,0,0,0-.52,1.27,1.67,1.67,0,0,0,.49,1.26,1.76,1.76,0,0,0,1.29.49A3.11,3.11,0,0,0,166.16,90.57Z"/>
    <path class="cls-1"
          d="M173.89,75.29a1.46,1.46,0,0,1,1.05.42,1.37,1.37,0,0,1,.43,1,1.4,1.4,0,0,1-.43,1,1.44,1.44,0,0,1-1.05.44,1.37,1.37,0,0,1-1-.44,1.44,1.44,0,0,1-.44-1,1.4,1.4,0,0,1,.44-1A1.34,1.34,0,0,1,173.89,75.29Zm-1.22,5.25h2.47V93h-2.47Z"/>
    <path class="cls-1"
          d="M178,99.41V80.54h4.32a7.53,7.53,0,0,1,5.18,1.66,5.92,5.92,0,0,1,1.85,4.63,6.37,6.37,0,0,1-1.74,4.62,5.92,5.92,0,0,1-4.44,1.81,7.88,7.88,0,0,1-2.65-.53v6.68Zm4.27-16.56h-1.75v7.69a5.14,5.14,0,0,0,2.39.58,3.7,3.7,0,0,0,2.84-1.2,4.48,4.48,0,0,0,1.1-3.11,4.32,4.32,0,0,0-.52-2.16,3.18,3.18,0,0,0-1.42-1.37A6.48,6.48,0,0,0,182.27,82.85Z"/>
    <path class="cls-1"
          d="M199.92,85.53v5.31c0,.42.14.64.43.64a2.93,2.93,0,0,0,1.4-.67v1.51a8.07,8.07,0,0,1-1.35.74,3,3,0,0,1-1.07.2c-1.06,0-1.68-.42-1.87-1.25a5.41,5.41,0,0,1-3.36,1.22,3,3,0,0,1-2.17-.86,2.94,2.94,0,0,1-.87-2.17,3,3,0,0,1,.85-2.11,5.87,5.87,0,0,1,2.41-1.48l3.17-1.08v-.67a2,2,0,0,0-2.26-2.25,5.45,5.45,0,0,0-3.94,2.09V82a5.11,5.11,0,0,1,4.15-1.7,4.74,4.74,0,0,1,3.24,1.06,3.19,3.19,0,0,1,.73.9,3.25,3.25,0,0,1,.42,1.13A16.32,16.32,0,0,1,199.92,85.53Zm-2.43,5V86.86l-1.66.64a5.56,5.56,0,0,0-1.79,1,1.69,1.69,0,0,0-.52,1.27A1.64,1.64,0,0,0,194,91a1.72,1.72,0,0,0,1.28.49A3.12,3.12,0,0,0,197.49,90.57Z"/>
    <path class="cls-1"
          d="M203.5,99.41V80.54h4.33A7.53,7.53,0,0,1,213,82.2a5.92,5.92,0,0,1,1.85,4.63,6.34,6.34,0,0,1-1.75,4.62,5.92,5.92,0,0,1-4.44,1.81,7.88,7.88,0,0,1-2.64-.53v6.68Zm4.28-16.56H206v7.69a5.13,5.13,0,0,0,2.38.58,3.67,3.67,0,0,0,2.84-1.2,4.44,4.44,0,0,0,1.11-3.11,4.32,4.32,0,0,0-.52-2.16,3.2,3.2,0,0,0-1.43-1.37A6.43,6.43,0,0,0,207.78,82.85Z"/>
    <path class="cls-1"
          d="M225.42,85.53v5.31c0,.42.15.64.44.64a3,3,0,0,0,1.4-.67v1.51a8.07,8.07,0,0,1-1.35.74,3,3,0,0,1-1.07.2c-1.06,0-1.68-.42-1.87-1.25a5.41,5.41,0,0,1-3.36,1.22,3,3,0,0,1-2.17-.86,2.94,2.94,0,0,1-.87-2.17,3,3,0,0,1,.85-2.11,5.8,5.8,0,0,1,2.41-1.48L223,85.53v-.67a2,2,0,0,0-2.25-2.25,5.45,5.45,0,0,0-3.94,2.09V82a5.1,5.1,0,0,1,4.14-1.7,4.78,4.78,0,0,1,3.25,1.06,3.19,3.19,0,0,1,.73.9,3.25,3.25,0,0,1,.42,1.13A16.92,16.92,0,0,1,225.42,85.53Zm-2.43,5V86.86l-1.65.64a5.56,5.56,0,0,0-1.79,1,1.69,1.69,0,0,0-.52,1.27,1.67,1.67,0,0,0,.49,1.26,1.74,1.74,0,0,0,1.29.49A3.11,3.11,0,0,0,223,90.57Z"/>
    <path class="cls-1" d="M233,74h15.85v2.42h-6.62V93h-2.73V76.46H233Z"/>
    <path class="cls-1"
          d="M255.43,85.53v5.31c0,.42.14.64.43.64a2.93,2.93,0,0,0,1.4-.67v1.51a8.07,8.07,0,0,1-1.35.74,3,3,0,0,1-1.07.2c-1.06,0-1.68-.42-1.87-1.25a5.41,5.41,0,0,1-3.36,1.22,3,3,0,0,1-2.17-.86,2.94,2.94,0,0,1-.87-2.17,3,3,0,0,1,.85-2.11,5.87,5.87,0,0,1,2.41-1.48L253,85.53v-.67a2,2,0,0,0-2.26-2.25,5.45,5.45,0,0,0-3.94,2.09V82A5.11,5.11,0,0,1,251,80.3a4.74,4.74,0,0,1,3.24,1.06,3.4,3.4,0,0,1,.74.9,3.44,3.44,0,0,1,.41,1.13A16.32,16.32,0,0,1,255.43,85.53Zm-2.43,5V86.86l-1.66.64a5.56,5.56,0,0,0-1.79,1,1.73,1.73,0,0,0-.52,1.27,1.68,1.68,0,0,0,.5,1.26,1.72,1.72,0,0,0,1.28.49A3.12,3.12,0,0,0,253,90.57Z"/>
    <path class="cls-1"
          d="M267.41,93v-1.6a6,6,0,0,1-1.8,1.34,4.7,4.7,0,0,1-2,.48,4.25,4.25,0,0,1-2.18-.59,3.9,3.9,0,0,1-1.51-1.61,8,8,0,0,1-.51-3.36V80.54h2.48v7.12a4.87,4.87,0,0,0,.56,2.75,2.28,2.28,0,0,0,2,.78,3.62,3.62,0,0,0,3-1.72V80.54h2.47V93Z"/>
    <path class="cls-1"
          d="M283,84V93h-2.48v-7a5.44,5.44,0,0,0-.56-2.9,2.17,2.17,0,0,0-1.94-.83,2.86,2.86,0,0,0-1.42.36A6.22,6.22,0,0,0,275.16,84V93h-2.47V80.54h2.47v1.65a5.4,5.4,0,0,1,3.7-1.89,4.06,4.06,0,0,1,3.68,2.25,5.57,5.57,0,0,1,4.14-2.28,3.85,3.85,0,0,1,3,1.33,6,6,0,0,1,1.17,4.06V93h-2.47v-7.4a3.82,3.82,0,0,0-.64-2.39,2.14,2.14,0,0,0-1.83-.83A3.77,3.77,0,0,0,283,84Z"/>
    <path class="cls-1"
          d="M302.1,85.53v5.31c0,.42.14.64.43.64a2.93,2.93,0,0,0,1.4-.67v1.51a8.07,8.07,0,0,1-1.35.74,3,3,0,0,1-1.07.2c-1.05,0-1.68-.42-1.87-1.25a5.41,5.41,0,0,1-3.35,1.22,3,3,0,0,1-2.18-.86,2.94,2.94,0,0,1-.87-2.17,3.07,3.07,0,0,1,.85-2.11,5.87,5.87,0,0,1,2.41-1.48l3.17-1.08v-.67a2,2,0,0,0-2.26-2.25,5.45,5.45,0,0,0-3.94,2.09V82a5.12,5.12,0,0,1,4.15-1.7,4.74,4.74,0,0,1,3.24,1.06,3.4,3.4,0,0,1,.74.9,3.44,3.44,0,0,1,.41,1.13A16.32,16.32,0,0,1,302.1,85.53Zm-2.43,5V86.86L298,87.5a5.56,5.56,0,0,0-1.79,1,1.82,1.82,0,0,0,0,2.53,1.73,1.73,0,0,0,1.28.49A3.12,3.12,0,0,0,299.67,90.57Z"/>
    <path class="cls-1"
          d="M303.81,82.53,308.46,78v2.58h4v2.23h-4v6.12c0,1.42.59,2.14,1.77,2.14a5.53,5.53,0,0,0,2.82-.88v2.31a6.29,6.29,0,0,1-3.11.8,4.12,4.12,0,0,1-2.83-1,2.66,2.66,0,0,1-.58-.68,3.22,3.22,0,0,1-.39-1,11.16,11.16,0,0,1-.16-2.3V82.77h-2.17Z"/>
    <path class="cls-1"
          d="M323.23,85.53v5.31c0,.42.15.64.44.64a3,3,0,0,0,1.4-.67v1.51a7.72,7.72,0,0,1-1.36.74,2.89,2.89,0,0,1-1.06.2c-1.06,0-1.68-.42-1.88-1.25a5.41,5.41,0,0,1-3.35,1.22,3,3,0,0,1-2.17-.86,2.94,2.94,0,0,1-.87-2.17,3,3,0,0,1,.85-2.11,5.74,5.74,0,0,1,2.41-1.48l3.16-1.08v-.67a2,2,0,0,0-2.25-2.25,5.45,5.45,0,0,0-3.94,2.09V82a5.1,5.1,0,0,1,4.14-1.7A4.78,4.78,0,0,1,322,81.36a3.37,3.37,0,0,1,.73.9,3,3,0,0,1,.41,1.13A16.32,16.32,0,0,1,323.23,85.53Zm-2.43,5V86.86l-1.66.64a5.49,5.49,0,0,0-1.78,1,1.69,1.69,0,0,0-.52,1.27,1.67,1.67,0,0,0,.49,1.26,1.73,1.73,0,0,0,1.28.49A3.12,3.12,0,0,0,320.8,90.57Z"/>
    <path class="cls-1"
          d="M336,93v-19h4.75a6.85,6.85,0,0,1,4.57,1.43A4.78,4.78,0,0,1,347,79.35a4.94,4.94,0,0,1-.82,2.86A5,5,0,0,1,343.77,84a8.31,8.31,0,0,1,1.78,1.63,33.19,33.19,0,0,1,2.44,3.6q1,1.62,1.59,2.43l1,1.36h-3.23l-.83-1.25a2.06,2.06,0,0,0-.17-.23l-.52-.75L345,89.42l-.91-1.48a15.15,15.15,0,0,0-1.55-1.86,5.49,5.49,0,0,0-1.26-1,4.18,4.18,0,0,0-1.9-.31h-.71V93Zm3.53-16.67h-.82v6h1a7.59,7.59,0,0,0,2.83-.35,2.71,2.71,0,0,0,1.2-1.07,3.1,3.1,0,0,0,.42-1.62,2.93,2.93,0,0,0-.47-1.62,2.56,2.56,0,0,0-1.34-1A9.65,9.65,0,0,0,339.49,76.37Z"/>
    <path class="cls-1"
          d="M360.19,85.53v5.31c0,.42.15.64.43.64a2.93,2.93,0,0,0,1.4-.67v1.51a8.07,8.07,0,0,1-1.35.74,2.93,2.93,0,0,1-1.06.2c-1.06,0-1.69-.42-1.88-1.25a5.41,5.41,0,0,1-3.35,1.22,3,3,0,0,1-2.18-.86,2.94,2.94,0,0,1-.87-2.17,3.07,3.07,0,0,1,.85-2.11,5.87,5.87,0,0,1,2.41-1.48l3.17-1.08v-.67a2,2,0,0,0-2.26-2.25,5.45,5.45,0,0,0-3.94,2.09V82a5.12,5.12,0,0,1,4.15-1.7A4.74,4.74,0,0,1,359,81.36a3.5,3.5,0,0,1,1.15,2A16.32,16.32,0,0,1,360.19,85.53Zm-2.43,5V86.86l-1.66.64a5.56,5.56,0,0,0-1.79,1,1.73,1.73,0,0,0-.52,1.27,1.68,1.68,0,0,0,.5,1.26,1.73,1.73,0,0,0,1.28.49A3.12,3.12,0,0,0,357.76,90.57Z"/>
    <path class="cls-1"
          d="M372.17,93v-1.6a6,6,0,0,1-1.8,1.34,4.7,4.7,0,0,1-2,.48,4.27,4.27,0,0,1-2.18-.59,3.88,3.88,0,0,1-1.5-1.61,8,8,0,0,1-.51-3.36V80.54h2.47v7.12a5,5,0,0,0,.56,2.75,2.29,2.29,0,0,0,2,.78,3.61,3.61,0,0,0,3-1.72V80.54h2.47V93Z"/>
    <polygon class="cls-1"
             points="142.71 121.12 135.06 112.13 132.87 112.13 132.87 125.01 135.31 125.01 135.31 115.88 143 125.01 145.14 125.01 145.14 112.13 142.71 112.13 142.71 121.12"/>
    <polygon class="cls-1"
             points="160.66 119.41 166.25 119.41 166.25 117.46 160.66 117.46 160.66 114.08 166.5 114.08 166.5 112.13 158.17 112.13 158.17 125.01 166.62 125.01 166.62 123.07 160.66 123.07 160.66 119.41"/>
    <polygon class="cls-1"
             points="192.45 120.11 189.06 112.13 186.95 112.13 183.58 120.08 180.37 112.13 177.8 112.13 183.11 125.18 183.92 125.18 187.99 115.63 192.05 125.18 192.89 125.18 198.19 112.13 195.65 112.13 192.45 120.11"/>
    <polygon class="cls-1"
             points="235.91 112.13 224.58 112.13 224.58 114.08 231.63 114.08 224.13 125.01 235.95 125.01 235.95 123.07 228.41 123.07 235.91 112.13"/>
    <polygon class="cls-1"
             points="250.53 119.41 256.11 119.41 256.11 117.46 250.53 117.46 250.53 114.08 256.36 114.08 256.36 112.13 248.04 112.13 248.04 125.01 256.49 125.01 256.49 123.07 250.53 123.07 250.53 119.41"/>
    <path class="cls-1"
          d="M273,112.13,267.68,125h2.61l1.25-3.13h5.72L278.6,125h2.63l-5.69-12.88Zm-.7,7.86,2-5.1,2.17,5.1Z"/>
    <polygon class="cls-1"
             points="295.42 112.13 292.94 112.13 292.94 125.01 301.67 125.01 301.67 123.07 295.42 123.07 295.42 112.13"/>
    <path class="cls-1"
          d="M317.56,112.13,312.25,125h2.61l1.24-3.13h5.73l1.33,3.13h2.63l-5.69-12.88Zm-.7,7.86,2-5.1L321,120Z"/>
    <polygon class="cls-1"
             points="347.34 121.12 339.69 112.13 337.5 112.13 337.5 125.01 339.93 125.01 339.93 115.88 347.63 125.01 349.77 125.01 349.77 112.13 347.34 112.13 347.34 121.12"/>
    <path class="cls-1"
          d="M371.77,113a7.71,7.71,0,0,0-3.58-.82H362.8V125H368a8,8,0,0,0,3.68-.8A5.85,5.85,0,0,0,374.2,122a6.87,6.87,0,0,0,0-6.69A6,6,0,0,0,371.77,113Zm-.52,8.88a4.5,4.5,0,0,1-3.32,1.24h-2.64v-9h2.56a4.67,4.67,0,0,1,3.39,1.21,4.33,4.33,0,0,1,1.26,3.29A4.39,4.39,0,0,1,371.25,121.83Z"/>
    <path class="cls-2"
          d="M3.26,35.87h.05A16.83,16.83,0,0,1,11.55,38h0l.33.17a16.15,16.15,0,0,0,16.1,0l.23-.14h0a17.24,17.24,0,0,1,16.91.15l.09.07a16.18,16.18,0,0,0,16-.05l.15-.08a17.22,17.22,0,0,1,17,.09,16.14,16.14,0,0,0,16.12,0,17,17,0,0,1,8.61-2.32V6.84H3.26ZM71,25.38a32.85,32.85,0,0,1,4.64-7.63c-.76-4.37,3.26-5.82,4.83-5.77a4,4,0,0,1,3,1.42,7.22,7.22,0,0,1,5.38-2.47c7.86-.24,11.84,5.64,11.66,10.34-.19,5.36-4.26,6.61-4.81,6.77a5.35,5.35,0,0,0,.84,2.73c.06.11.24.25.06.55a3.23,3.23,0,0,1-.22.41.55.55,0,0,0,0,.42A1.73,1.73,0,0,1,96,33.39a6.25,6.25,0,0,0,.13,2.26c0,.15-.08.16-.18.05a3.46,3.46,0,0,1-1-1.88,5,5,0,0,0-2.43,2.47c0,.12-.24.24-.27,0a3.09,3.09,0,0,1,1.32-2.79,2.84,2.84,0,0,0-2.13.43s-.26.14-.09-.11c0,0,.48-1,2.52-1.34a9.62,9.62,0,0,0,.62-1.26,6.94,6.94,0,0,0-.92-2.62A5.46,5.46,0,0,0,91,29.5a.49.49,0,0,0-.2.38v.44c0,.06-.07.47-.59.63,0,.05-1.77.59-2.59,1a3.89,3.89,0,0,0-1.32,1.12,3,3,0,0,1-1.17,1,1.71,1.71,0,0,0-.74.43,4.09,4.09,0,0,1-.67.62,3.61,3.61,0,0,0-1,1.32c-.06.1-.15.22-.16,0a5.27,5.27,0,0,1,0-.65,3.43,3.43,0,0,1,.93-1.69.69.69,0,0,1-.25-.09c-.63.08-2.6-.1-3.78.48-.09,0-.17,0-.09-.1.22-.29.66-1.44,3.32-1.5,0-.25-1.19-.84-1.81-.84-.19,0-.07-.11,0-.14a2.82,2.82,0,0,1,2.69.33,6.61,6.61,0,0,1,1.53-.42,25.39,25.39,0,0,1,2.63-2.13,2.37,2.37,0,0,1,0-.69l-.07,0a6.06,6.06,0,0,1-.82-3.45,6.86,6.86,0,0,1-4-2.61,6,6,0,0,1-4.48-3.39c-4,2.88-6.62,8-6.76,8.25-.09.07-.15.07-.22,0A3.89,3.89,0,0,1,71,25.38Zm-32.94,0a32.93,32.93,0,0,1,4.65-7.63C42,13.38,46,11.93,47.56,12a4,4,0,0,1,3,1.42,7.19,7.19,0,0,1,5.38-2.47c7.85-.24,11.84,5.64,11.66,10.34-.2,5.36-4.26,6.61-4.82,6.77a5.43,5.43,0,0,0,.85,2.73c0,.11.23.25.06.55a3.23,3.23,0,0,1-.22.41.5.5,0,0,0-.06.42,1.73,1.73,0,0,1-.29,1.24,5.86,5.86,0,0,0,.14,2.26c0,.15-.09.16-.18.05a3.47,3.47,0,0,1-1-1.88,5,5,0,0,0-2.43,2.47c0,.12-.24.24-.28,0a3.14,3.14,0,0,1,1.33-2.79,2.83,2.83,0,0,0-2.12.43s-.27.14-.09-.11c0,0,.47-1,2.51-1.34a10.67,10.67,0,0,0,.63-1.26,7.15,7.15,0,0,0-.93-2.62,5.41,5.41,0,0,0-2.55.92.46.46,0,0,0-.2.38v.44c0,.06-.07.47-.6.63,0,.05-1.77.59-2.58,1a3.78,3.78,0,0,0-1.33,1.12,2.84,2.84,0,0,1-1.17,1,1.69,1.69,0,0,0-.73.43,4.55,4.55,0,0,1-.68.62,3.73,3.73,0,0,0-1,1.32c-.05.1-.15.22-.16,0s0-.64,0-.65a3.51,3.51,0,0,1,.94-1.69.67.67,0,0,1-.26-.09c-.62.08-2.59-.1-3.78.48-.08,0-.17,0-.08-.1.22-.29.66-1.44,3.31-1.5,0-.25-1.19-.84-1.8-.84-.19,0-.08-.11,0-.14a2.82,2.82,0,0,1,2.69.33,6.34,6.34,0,0,1,1.52-.42,27.7,27.7,0,0,1,2.63-2.13,2.14,2.14,0,0,1,0-.69l-.08,0A6.14,6.14,0,0,1,54,25.51a6.81,6.81,0,0,1-4-2.61,6,6,0,0,1-4.48-3.39c-4,2.88-6.62,8-6.77,8.25-.09.07-.14.07-.21,0A3.91,3.91,0,0,1,38.09,25.38ZM5,25.38A32.85,32.85,0,0,1,9.6,17.75c-.76-4.37,3.26-5.82,4.82-5.77a4,4,0,0,1,3,1.42,7.19,7.19,0,0,1,5.38-2.47c7.85-.24,11.83,5.64,11.66,10.34-.2,5.36-4.26,6.61-4.81,6.77a5.35,5.35,0,0,0,.84,2.73c.05.11.23.25.06.55a3.3,3.3,0,0,1-.23.41.56.56,0,0,0,0,.42,1.8,1.8,0,0,1-.3,1.24,5.89,5.89,0,0,0,.15,2.26c0,.15-.09.16-.19.05a3.62,3.62,0,0,1-1-1.88,5.1,5.1,0,0,0-2.42,2.47c0,.12-.23.24-.27,0a3.15,3.15,0,0,1,1.32-2.79,2.83,2.83,0,0,0-2.12.43s-.26.14-.09-.11c0,0,.47-1,2.51-1.34a9.26,9.26,0,0,0,.63-1.26,7.15,7.15,0,0,0-.93-2.62A5.44,5.44,0,0,0,25,29.5a.46.46,0,0,0-.2.38v.44c0,.06-.08.47-.6.63,0,.05-1.77.59-2.58,1a3.88,3.88,0,0,0-1.33,1.12,2.84,2.84,0,0,1-1.17,1,1.75,1.75,0,0,0-.73.43,5.09,5.09,0,0,1-.67.62,3.72,3.72,0,0,0-1,1.32c-.05.1-.15.22-.16,0s0-.64,0-.65a3.51,3.51,0,0,1,.94-1.69A.67.67,0,0,1,17.2,34c-.63.08-2.59-.1-3.77.48-.09,0-.18,0-.09-.1.22-.29.66-1.44,3.31-1.5,0-.25-1.18-.84-1.8-.84-.2,0-.08-.11,0-.14a2.82,2.82,0,0,1,2.69.33,6.31,6.31,0,0,1,1.53-.42,25.39,25.39,0,0,1,2.63-2.13,2.25,2.25,0,0,1,0-.69l-.06,0a6,6,0,0,1-.83-3.45,6.84,6.84,0,0,1-4-2.61,6,6,0,0,1-4.48-3.39c-4,2.88-6.62,8-6.76,8.25-.1.07-.15.07-.22,0A3.81,3.81,0,0,1,5,25.38Z"/>
    <path class="cls-2"
          d="M52.74,91.85c-.17-.28-.35-.55-.53-.81H50.47a.54.54,0,0,0-.54.54.54.54,0,0,0,.54.54H56a.54.54,0,0,0,.54-.54A.54.54,0,0,0,56,91H54.2c-.18.26-.36.52-.53.81Z"/>
    <polygon class="cls-2"
             points="35.51 46.73 33.15 39.33 30.79 46.73 22.95 46.73 29.38 51.38 27.04 58.74 33.15 54.13 39.26 58.74 36.92 51.38 43.35 46.73 35.51 46.73"/>
    <polygon class="cls-2"
             points="75.58 46.68 73.22 39.27 70.86 46.68 63.02 46.68 69.45 51.31 67.11 58.68 73.22 54.06 79.33 58.68 76.99 51.31 83.42 46.68 75.58 46.68"/>
    <polygon class="cls-2"
             points="55.56 104.55 53.2 97.14 50.84 104.55 42.99 104.55 49.43 109.19 47.09 116.56 53.2 111.94 59.3 116.56 56.96 109.19 63.4 104.55 55.56 104.55"/>
    <path class="cls-2"
          d="M12.54,18.09c.23.18,1.57,3.67,4.65,3.86.35.26,1.89,2.83,4.63,2.58,0,.29,0,2.76.5,3.57l.11.15c0-.08,0,0,0,0a10.29,10.29,0,0,1,3.05-1.79,10.58,10.58,0,0,1,.92-2.14,5.09,5.09,0,0,0,4.12-4.75c.05-2.83-2.48-5.89-5.32-5.53,0,0-.09,0,0-.07a2.33,2.33,0,0,1,1.43-.62,4.79,4.79,0,0,0-3.84.08l0-.08a4,4,0,0,1,1.1-1.07,4.7,4.7,0,0,0-3.29,1.16v-.16a3.13,3.13,0,0,1,.84-1.11c-2.46.08-4.37,3.2-4.37,3.2a2.73,2.73,0,0,0-2.57-2.23c-1.56-.24-5.06,1.9-3.71,4.8-.62,1.16-2.68,2.95-4.43,6.58,0,.08,0,0,0,.13C7.93,22.39,10.21,19.51,12.54,18.09Zm-.49-2a.66.66,0,0,1,.66.65.67.67,0,0,1-.66.66.66.66,0,0,1-.65-.66A.65.65,0,0,1,12.05,16.09Z"/>
    <path class="cls-2"
          d="M45.67,18.09c.24.18,1.58,3.67,4.66,3.86.35.26,1.89,2.83,4.62,2.58,0,.29,0,2.76.51,3.57l.11.15c0-.08,0,0,0,0a10.29,10.29,0,0,1,3-1.79,10.58,10.58,0,0,1,.92-2.14,5.1,5.1,0,0,0,4.12-4.75c0-2.83-2.49-5.89-5.32-5.53,0,0-.09,0,0-.07a2.42,2.42,0,0,1,1.44-.62,4.79,4.79,0,0,0-3.84.08v-.08A3.89,3.89,0,0,1,57,12.27a4.66,4.66,0,0,0-3.28,1.16v-.16a3.31,3.31,0,0,1,.84-1.11c-2.45.08-4.36,3.2-4.36,3.2a2.73,2.73,0,0,0-2.57-2.23c-1.56-.24-5.06,1.9-3.71,4.8-.63,1.16-2.68,2.95-4.43,6.58,0,.08,0,0,0,.13C41.07,22.39,43.35,19.51,45.67,18.09Zm-.47-2a.66.66,0,0,1,.65.65.66.66,0,1,1-1.31,0A.65.65,0,0,1,45.2,16.09Z"/>
    <path class="cls-2"
          d="M78.61,18.09c.23.18,1.57,3.67,4.66,3.86.34.26,1.89,2.83,4.62,2.58,0,.29,0,2.76.51,3.57l.11.15c0-.08,0,0,0,0a10,10,0,0,1,3-1.79,10,10,0,0,1,.92-2.14,5.09,5.09,0,0,0,4.11-4.75c.06-2.83-2.48-5.89-5.32-5.53,0,0-.09,0,0-.07a2.36,2.36,0,0,1,1.44-.62,4.78,4.78,0,0,0-3.84.08l0-.08A4,4,0,0,1,90,12.27a4.66,4.66,0,0,0-3.28,1.16v-.16a3.13,3.13,0,0,1,.84-1.11c-2.46.08-4.37,3.2-4.37,3.2a2.73,2.73,0,0,0-2.57-2.23c-1.56-.24-5,1.9-3.71,4.8-.62,1.16-2.68,2.95-4.42,6.58,0,.08,0,0,0,.13C74,22.39,76.29,19.51,78.61,18.09Zm-.48-2a.65.65,0,0,1,.65.65.65.65,0,1,1-1.3,0A.65.65,0,0,1,78.13,16.09Z"/>
    <path class="cls-1"
          d="M1,4.56v52.7C1,61.62,2.69,73.11,9.2,85.4c9,17,23.68,29.9,43.57,38.23l.44.18.45-.18c42.47-17.78,51.77-53.94,51.77-66.37V4.56ZM57.31,89.33l-.75.5.8.42a1.59,1.59,0,0,1-.75,3H49.79a1.59,1.59,0,0,1-.75-3l.79-.42-.74-.5a9.6,9.6,0,0,0-5.37-1.67,9.81,9.81,0,0,0-5.42,1.67A10.4,10.4,0,0,1,31.86,91a13.5,13.5,0,0,1-9.33-3.41l-.15-.13H20.67l-.16.19a1.27,1.27,0,0,1-1,.45,1.16,1.16,0,1,1,0-2.32,1.31,1.31,0,0,1,1,.46l.16.19h2V83.93h-2l-.16.19a1.3,1.3,0,0,1-1,.45,1.17,1.17,0,1,1,0-2.33,1.28,1.28,0,0,1,1,.46l.17.2h2V80.41h-2l-.16.19a1.27,1.27,0,0,1-1,.45,1.16,1.16,0,1,1,0-2.32,1.26,1.26,0,0,1,1,.46l.16.2h2V76.9h-2l-.16.19a1.3,1.3,0,0,1-1,.45,1.16,1.16,0,1,1,0-2.32,1.25,1.25,0,0,1,1,.46l.16.19h2V73.38h-2l-.16.2a1.3,1.3,0,0,1-1,.45,1.17,1.17,0,1,1,0-2.33,1.3,1.3,0,0,1,1,.46l.16.2h2V69.87h-2l-.17.19a1.27,1.27,0,0,1-1,.45,1.16,1.16,0,1,1,0-2.32,1.3,1.3,0,0,1,1,.46l.16.2h2V66.36h-2l-.17.19a1.27,1.27,0,0,1-1,.45,1.16,1.16,0,1,1,0-2.32,1.29,1.29,0,0,1,1,.45l.16.2h1.59l1.7-.86V87l.25.46c4.68,2.94,9.38,3.24,13.6.86C42.3,85.82,48.54,85.7,52.21,91H50.47a.54.54,0,0,0-.54.54.54.54,0,0,0,.54.54H56a.54.54,0,0,0,.54-.54A.54.54,0,0,0,56,91H54.2c3.73-5.43,10-4.91,14.37-2.69,3.88,2,8.43,1.68,13.52-.84l.3-.49V64.48l1.71.86h1.58l.16-.19a1.29,1.29,0,0,1,1-.46,1.16,1.16,0,1,1,0,2.32,1.29,1.29,0,0,1-1-.45l-.17-.19h-2v2.49h2l.17-.2a1.28,1.28,0,0,1,1-.46,1.16,1.16,0,1,1,0,2.32,1.28,1.28,0,0,1-1-.45l-.16-.19h-2v2.49h2l.16-.2a1.28,1.28,0,0,1,1-.46,1.17,1.17,0,1,1,0,2.33,1.32,1.32,0,0,1-1-.45l-.16-.2h-2v2.49h2l.16-.19a1.31,1.31,0,0,1,1-.46,1.16,1.16,0,1,1,0,2.32,1.27,1.27,0,0,1-1-.45l-.17-.19h-2v2.49h2l.16-.2a1.3,1.3,0,0,1,1-.46,1.16,1.16,0,1,1,0,2.32,1.28,1.28,0,0,1-1-.45l-.16-.19h-2V82.9h2l.16-.2a1.29,1.29,0,0,1,1-.46,1.17,1.17,0,1,1,0,2.33,1.32,1.32,0,0,1-1-.45l-.16-.19h-2v2.48h2l.16-.19a1.28,1.28,0,0,1,1-.46,1.16,1.16,0,1,1,0,2.32,1.34,1.34,0,0,1-1-.45l-.16-.19H84l-.15.13A13.5,13.5,0,0,1,74.54,91a10.42,10.42,0,0,1-6.44-1.65A9.57,9.57,0,0,0,57.31,89.33ZM26.52,86.24C30,88.08,32.84,88.58,38,85.93a12.66,12.66,0,0,1,14.71,2.21v1.69C48.57,84.54,42,84.74,37.32,87.4c-3.77,2.13-8,1.89-12.23-.68V63.94l1.14-.57V86.09Zm.79-.8V62.82l.15-.07a15.79,15.79,0,0,0,10.78-1.06c4.78-2,9.63-1.38,14.42,1.91V86.69a14.13,14.13,0,0,0-8.94-3.28A13.39,13.39,0,0,0,37.46,85C32.88,87.34,30.4,87,27.31,85.44Zm41.14.49c5.11,2.65,8,2.15,11.43.31l.29-.15V63.37l1.14.57V86.69c-4.65,2.22-8.77,2.46-12.25.69-4.62-2.33-11.17-2.92-15.32,2.45V88.14A12.66,12.66,0,0,1,68.45,85.93Zm-14.71.76V63.6c4.8-3.29,9.64-3.93,14.42-1.91A15.82,15.82,0,0,0,79,62.75l.14.07V85.44C76,87,73.52,87.34,69,85A13.68,13.68,0,0,0,53.74,86.69Zm25.59-28-6.11-4.61-6.11,4.61,2.34-7.37L63,46.68h7.84l2.36-7.41,2.37,7.41h7.83L77,51.31Zm-40.07.06-6.11-4.61L27,58.74l2.34-7.36L23,46.73h7.84l2.36-7.41,2.36,7.41h7.84l-6.43,4.65Zm7.83,57.82,2.34-7.37L43,104.55h7.84l2.37-7.41,2.36,7.41H63.4L57,109.19l2.34,7.37-6.1-4.62Zm56.06-80.64a17,17,0,0,0-8.61,2.32,16.14,16.14,0,0,1-16.12,0,17.22,17.22,0,0,0-17-.09l-.15.08a16.18,16.18,0,0,1-16,.05l-.09-.07a17.24,17.24,0,0,0-16.91-.15h0l-.23.14a16.15,16.15,0,0,1-16.1,0L11.55,38h0a16.83,16.83,0,0,0-8.24-2.15H3.26v-29h99.89Z"/>
    <path class="cls-1"
          d="M16.8,22.9a6.84,6.84,0,0,0,4,2.61A6,6,0,0,0,21.65,29l.06,0a2.25,2.25,0,0,0,0,.69,25.39,25.39,0,0,0-2.63,2.13,6.31,6.31,0,0,0-1.53.42,2.82,2.82,0,0,0-2.69-.33c-.08,0-.2.14,0,.14.62,0,1.83.59,1.8.84-2.65.06-3.09,1.21-3.31,1.5-.09.13,0,.14.09.1,1.18-.58,3.14-.4,3.77-.48a.67.67,0,0,0,.26.09,3.51,3.51,0,0,0-.94,1.69s0,.37,0,.65.11.1.16,0a3.72,3.72,0,0,1,1-1.32,5.09,5.09,0,0,0,.67-.62,1.75,1.75,0,0,1,.73-.43,2.84,2.84,0,0,0,1.17-1,3.88,3.88,0,0,1,1.33-1.12c.81-.39,2.54-.93,2.58-1,.52-.16.62-.57.6-.63v-.44a.46.46,0,0,1,.2-.38,5.44,5.44,0,0,1,2.55-.92,7.15,7.15,0,0,1,.93,2.62,9.26,9.26,0,0,1-.63,1.26c-2,.29-2.48,1.29-2.51,1.34-.17.25.05.15.09.11a2.83,2.83,0,0,1,2.12-.43,3.15,3.15,0,0,0-1.32,2.79c0,.26.24.14.27,0a5.1,5.1,0,0,1,2.42-2.47,3.62,3.62,0,0,0,1,1.88c.1.11.2.1.19-.05a5.89,5.89,0,0,1-.15-2.26,1.8,1.8,0,0,0,.3-1.24.56.56,0,0,1,0-.42,3.3,3.3,0,0,0,.23-.41c.17-.3,0-.44-.06-.55A5.35,5.35,0,0,1,29.61,28c.55-.16,4.61-1.41,4.81-6.77.17-4.7-3.81-10.58-11.66-10.34a7.19,7.19,0,0,0-5.38,2.47,4,4,0,0,0-3-1.42c-1.56-.05-5.58,1.4-4.82,5.77A32.85,32.85,0,0,0,5,25.38a3.81,3.81,0,0,0,.38,2.4c.07,0,.12,0,.22,0,.14-.24,2.75-5.37,6.76-8.25A6,6,0,0,0,16.8,22.9ZM6.35,24.64c0-.08,0-.05,0-.13,1.75-3.63,3.81-5.42,4.43-6.58-1.35-2.9,2.15-5,3.71-4.8a2.73,2.73,0,0,1,2.57,2.23s1.91-3.12,4.37-3.2a3.13,3.13,0,0,0-.84,1.11v.16a4.7,4.7,0,0,1,3.29-1.16,4,4,0,0,0-1.1,1.07l0,.08a4.79,4.79,0,0,1,3.84-.08,2.33,2.33,0,0,0-1.43.62c-.08.07,0,.07,0,.07,2.84-.36,5.37,2.7,5.32,5.53a5.09,5.09,0,0,1-4.12,4.75,10.58,10.58,0,0,0-.92,2.14,10.29,10.29,0,0,0-3.05,1.79s0-.07,0,0l-.11-.15c-.47-.81-.47-3.28-.5-3.57-2.74.25-4.28-2.32-4.63-2.58-3.08-.19-4.42-3.68-4.65-3.86C10.21,19.51,7.93,22.39,6.35,24.64Z"/>
    <path class="cls-1"
          d="M12.05,16.09a.65.65,0,0,0-.65.65.66.66,0,0,0,.65.66.67.67,0,0,0,.66-.66A.66.66,0,0,0,12.05,16.09Z"/>
    <path class="cls-1"
          d="M38.69,27.76c.15-.24,2.76-5.37,6.77-8.25a6,6,0,0,0,4.48,3.39,6.81,6.81,0,0,0,4,2.61A6.14,6.14,0,0,0,54.78,29l.08,0a2.14,2.14,0,0,0,0,.69A27.7,27.7,0,0,0,52.2,31.8a6.34,6.34,0,0,0-1.52.42A2.82,2.82,0,0,0,48,31.89c-.08,0-.19.14,0,.14.61,0,1.83.59,1.8.84-2.65.06-3.09,1.21-3.31,1.5-.09.13,0,.14.08.1,1.19-.58,3.16-.4,3.78-.48a.67.67,0,0,0,.26.09,3.51,3.51,0,0,0-.94,1.69s0,.37,0,.65.11.1.16,0a3.73,3.73,0,0,1,1-1.32,4.55,4.55,0,0,0,.68-.62,1.69,1.69,0,0,1,.73-.43,2.84,2.84,0,0,0,1.17-1,3.78,3.78,0,0,1,1.33-1.12c.81-.39,2.53-.93,2.58-1,.53-.16.62-.57.6-.63v-.44a.46.46,0,0,1,.2-.38,5.41,5.41,0,0,1,2.55-.92,7.15,7.15,0,0,1,.93,2.62A10.67,10.67,0,0,1,61,32.46c-2,.29-2.48,1.29-2.51,1.34-.18.25.05.15.09.11a2.83,2.83,0,0,1,2.12-.43,3.14,3.14,0,0,0-1.33,2.79c0,.26.24.14.28,0A5,5,0,0,1,62,33.82a3.47,3.47,0,0,0,1,1.88c.09.11.21.1.18-.05a5.86,5.86,0,0,1-.14-2.26,1.73,1.73,0,0,0,.29-1.24.5.5,0,0,1,.06-.42,3.23,3.23,0,0,0,.22-.41c.17-.3,0-.44-.06-.55A5.43,5.43,0,0,1,62.74,28c.56-.16,4.62-1.41,4.82-6.77.18-4.7-3.81-10.58-11.66-10.34a7.19,7.19,0,0,0-5.38,2.47,4,4,0,0,0-3-1.42c-1.56-.05-5.58,1.4-4.82,5.77a32.93,32.93,0,0,0-4.65,7.63,3.91,3.91,0,0,0,.39,2.4C38.55,27.83,38.6,27.83,38.69,27.76Zm.8-3.25c1.75-3.63,3.8-5.42,4.43-6.58-1.35-2.9,2.15-5,3.71-4.8a2.73,2.73,0,0,1,2.57,2.23s1.91-3.12,4.36-3.2a3.31,3.31,0,0,0-.84,1.11v.16A4.66,4.66,0,0,1,57,12.27a3.89,3.89,0,0,0-1.08,1.07v.08a4.79,4.79,0,0,1,3.84-.08,2.42,2.42,0,0,0-1.44.62c-.07.07,0,.07,0,.07,2.83-.36,5.37,2.7,5.32,5.53a5.1,5.1,0,0,1-4.12,4.75,10.58,10.58,0,0,0-.92,2.14,10.29,10.29,0,0,0-3,1.79s0-.07,0,0l-.11-.15C55,27.29,55,24.82,55,24.53c-2.73.25-4.27-2.32-4.62-2.58-3.08-.19-4.42-3.68-4.66-3.86-2.32,1.42-4.6,4.3-6.18,6.55C39.53,24.56,39.45,24.59,39.49,24.51Z"/>
    <path class="cls-1" d="M45.2,17.4a.66.66,0,0,0,.65-.66.66.66,0,1,0-.65.66Z"/>
    <path class="cls-1"
          d="M71.63,27.76c.14-.24,2.76-5.37,6.76-8.25a6,6,0,0,0,4.48,3.39,6.86,6.86,0,0,0,4,2.61A6.06,6.06,0,0,0,87.72,29l.07,0a2.37,2.37,0,0,0,0,.69,25.39,25.39,0,0,0-2.63,2.13,6.61,6.61,0,0,0-1.53.42,2.82,2.82,0,0,0-2.69-.33c-.07,0-.19.14,0,.14.62,0,1.85.59,1.81.84-2.66.06-3.1,1.21-3.32,1.5-.08.13,0,.14.09.1,1.18-.58,3.15-.4,3.78-.48a.69.69,0,0,0,.25.09,3.43,3.43,0,0,0-.93,1.69,5.27,5.27,0,0,0,0,.65c0,.22.1.1.16,0a3.61,3.61,0,0,1,1-1.32,4.09,4.09,0,0,0,.67-.62,1.71,1.71,0,0,1,.74-.43,3,3,0,0,0,1.17-1,3.89,3.89,0,0,1,1.32-1.12c.82-.39,2.54-.93,2.59-1,.52-.16.61-.57.59-.63v-.44a.49.49,0,0,1,.2-.38,5.46,5.46,0,0,1,2.56-.92,6.94,6.94,0,0,1,.92,2.62,9.62,9.62,0,0,1-.62,1.26c-2,.29-2.48,1.29-2.52,1.34-.17.25.06.15.09.11a2.84,2.84,0,0,1,2.13-.43,3.09,3.09,0,0,0-1.32,2.79c0,.26.23.14.27,0A5,5,0,0,1,95,33.82a3.46,3.46,0,0,0,1,1.88c.1.11.21.1.18-.05A6.25,6.25,0,0,1,96,33.39a1.73,1.73,0,0,0,.29-1.24.55.55,0,0,1,0-.42,3.23,3.23,0,0,0,.22-.41c.18-.3,0-.44-.06-.55A5.35,5.35,0,0,1,95.68,28c.55-.16,4.62-1.41,4.81-6.77.18-4.7-3.8-10.58-11.66-10.34a7.22,7.22,0,0,0-5.38,2.47,4,4,0,0,0-3-1.42c-1.57-.05-5.59,1.4-4.83,5.77A32.85,32.85,0,0,0,71,25.38a3.89,3.89,0,0,0,.38,2.4C71.48,27.83,71.54,27.83,71.63,27.76Zm.8-3.25c1.74-3.63,3.8-5.42,4.42-6.58-1.34-2.9,2.15-5,3.71-4.8a2.73,2.73,0,0,1,2.57,2.23s1.91-3.12,4.37-3.2a3.13,3.13,0,0,0-.84,1.11v.16A4.66,4.66,0,0,1,90,12.27a4,4,0,0,0-1.09,1.07l0,.08a4.78,4.78,0,0,1,3.84-.08,2.36,2.36,0,0,0-1.44.62c-.08.07,0,.07,0,.07,2.84-.36,5.38,2.7,5.32,5.53a5.09,5.09,0,0,1-4.11,4.75,10,10,0,0,0-.92,2.14,10,10,0,0,0-3,1.79s0-.07,0,0l-.11-.15c-.48-.81-.47-3.28-.51-3.57-2.73.25-4.28-2.32-4.62-2.58-3.09-.19-4.43-3.68-4.66-3.86-2.32,1.42-4.6,4.3-6.18,6.55C72.46,24.56,72.39,24.59,72.43,24.51Z"/>
    <path class="cls-1" d="M78.13,17.4a.66.66,0,0,0,.65-.66.65.65,0,1,0-1.3,0A.66.66,0,0,0,78.13,17.4Z"/>
</svg>