<svg width="111.756" height="131.756" xmlns="http://www.w3.org/2000/svg">
 <g>
  <title>Layer 1</title>
  <g id="svg_27">
   <rect stroke="null" id="svg_25" height="46.60548" width="94.86234" y="11.49199" x="8.39754" fill="#fff"/>
   <g id="svg_3">
    <path stroke="#000" d="m55.98292,120.24862c43.17711,-18.14104 47.37554,-55.12253 47.37554,-60.73564l0,-48.0056l-94.85015,0l0,48.0056c0,5.6131 4.2975,42.59261 47.47461,60.73564" fill="none" stroke-width="0.49" stroke-miterlimit="2.613" id="svg_5"/>
    <path stroke="null" d="m103.25741,40.16927l-0.99859,0a15.45832,15.45832 0 0 0 -7.69746,2.0051c-2.29834,1.40278 -4.89982,2.10417 -7.69746,2.10417s-5.49422,-0.70139 -7.6935,-2.0051l-0.10105,-0.10105c-2.19729,-1.30173 -4.89982,-2.10417 -7.69746,-2.10417s-5.39912,0.80244 -7.69746,2.10417c-2.29834,1.40278 -4.89586,2.10417 -7.69548,2.10417c-2.79962,0 -5.4962,-0.70139 -7.69548,-2.10417l-0.09907,0a15.26812,15.26812 0 0 0 -7.69548,-2.10417c-2.79764,0 -5.39714,0.80244 -7.69548,2.10417c-2.29834,1.30371 -4.89784,2.10417 -7.69548,2.10417a15.2483,15.2483 0 0 1 -7.69548,-2.10417l-0.10105,0a14.9828,14.9828 0 0 0 -7.69548,-2.10417c-0.29918,0 -0.40023,0 -0.79848,0.09907l-0.29918,0l0,19.34371c0,5.6131 4.2975,42.5946 47.47461,60.73564c43.17711,-18.14104 47.37554,-55.12253 47.37554,-60.73564l0,-19.34371l-0.10105,0l0,0.00198z" fill-rule="evenodd" clip-rule="evenodd" fill="#15538a" id="svg_6"/>
    <path stroke="#000" d="m103.25741,40.16927l-0.99859,0a15.45832,15.45832 0 0 0 -7.69746,2.0051c-2.29834,1.40278 -4.89982,2.10417 -7.69746,2.10417s-5.49422,-0.70139 -7.6935,-2.0051l-0.10105,-0.10105c-2.19729,-1.30173 -4.89982,-2.10417 -7.69746,-2.10417s-5.39912,0.80244 -7.69746,2.10417c-2.29834,1.40278 -4.89586,2.10417 -7.69548,2.10417c-2.79962,0 -5.4962,-0.70139 -7.69548,-2.10417l-0.09907,0a15.26812,15.26812 0 0 0 -7.69548,-2.10417c-2.79764,0 -5.39714,0.80244 -7.69548,2.10417c-2.29834,1.30371 -4.89784,2.10417 -7.69548,2.10417a15.26812,15.26812 0 0 1 -7.69548,-2.10417l-0.10105,0a14.9828,14.9828 0 0 0 -7.69548,-2.10417c-0.29918,0 -0.40023,0 -0.79848,0.09907l-0.29918,0l0,19.34371c0,5.6131 4.2975,42.5946 47.47461,60.73564c43.17711,-18.14104 47.37554,-55.12253 47.37554,-60.73564l0,-19.34371l-0.10105,0" fill="none" stroke-width="0.49" stroke-miterlimit="2.613" id="svg_7"/>
    <path stroke="null" d="m55.98292,65.12609c4.69575,-3.30684 9.49453,-3.90916 14.09121,-2.0051c3.69914,1.60289 6.29666,1.80301 9.79371,1.00057l4.89982,2.40533l1.09964,0a1.61082,1.61082 0 0 1 1.29975,-0.60232c0.89754,0 1.698,0.70139 1.698,1.60488c0,0.80046 -0.80046,1.50383 -1.698,1.50383a1.61676,1.61676 0 0 1 -1.29975,-0.60232l-1.09964,0l0,1.30173l1.09964,0c0.30116,-0.29918 0.80046,-0.60034 1.29975,-0.60034c0.89754,0 1.698,0.70139 1.698,1.60289s-0.80046,1.60488 -1.698,1.60488a1.61082,1.61082 0 0 1 -1.29975,-0.60232l-1.09964,0l0,1.30371l1.09964,0a1.61478,1.61478 0 0 1 1.29975,-0.60034c0.89754,0 1.698,0.70139 1.698,1.60289c0,0.9015 -0.80046,1.60289 -1.698,1.60289c-0.49929,0 -0.99859,-0.29918 -1.29975,-0.60232l-1.09964,0l0,1.30371l1.09964,0a1.61082,1.61082 0 0 1 1.29975,-0.60232c0.89754,0 1.698,0.70139 1.698,1.50383c0,0.9015 -0.80046,1.60289 -1.698,1.60289a1.61478,1.61478 0 0 1 -1.29975,-0.60034l-1.09964,0l0,1.30371l1.09964,0c0.30116,-0.29918 0.80046,-0.60034 1.29975,-0.60034c0.89754,0 1.698,0.70139 1.698,1.60488c0,0.9015 -0.80046,1.60289 -1.698,1.60289a1.61082,1.61082 0 0 1 -1.29975,-0.60232l-1.09964,0l0,1.30371l1.09964,0a1.61478,1.61478 0 0 1 1.29975,-0.60034c0.99859,0 1.698,0.70139 1.698,1.60488c0,0.80046 -0.70139,1.50185 -1.698,1.50185a1.90009,1.90009 0 0 1 -1.29975,-0.50128l-1.09964,0l0,1.30371l1.09964,0a1.61676,1.61676 0 0 1 1.29975,-0.60232c0.99859,0 1.698,0.70139 1.698,1.50383c0,0.9015 -0.70139,1.60488 -1.698,1.60488a1.61676,1.61676 0 0 1 -1.29975,-0.60232l-1.09964,0c-2.79764,2.40533 -5.69632,3.30684 -8.99721,3.30684c-2.79764,0 -4.49762,-0.40221 -6.29666,-1.60488c-2.89868,-2.0051 -6.49281,-2.0051 -9.39546,0c0.60034,0.30116 1.00255,1.00255 1.00255,1.70394c0,1.1036 -0.9015,2.0051 -2.00114,2.0051l-6.29666,0a2.00709,2.00709 0 0 1 -1.99916,-2.0051c0,-0.70139 0.49929,-1.40278 1.09964,-1.70394c-2.89868,-2.0051 -6.49678,-2.0051 -9.49453,0c-1.79905,1.20267 -3.39798,1.60488 -6.19561,1.60488c-3.39798,0 -6.29666,-0.90349 -8.99523,-3.30684l-1.1987,0a1.61082,1.61082 0 0 1 -1.29975,0.60232c-0.89952,0 -1.69998,-0.70139 -1.69998,-1.60488c0,-0.80244 0.80046,-1.50383 1.69998,-1.50383c0.49929,0 0.99859,0.2021 1.29975,0.60232l1.1987,0l0,-1.30371l-1.1987,0a1.89217,1.89217 0 0 1 -1.29975,0.50128c-0.89952,0 -1.69998,-0.70139 -1.69998,-1.50185c0,-0.90349 0.80046,-1.60488 1.69998,-1.60488c0.49929,0 0.99859,0.20011 1.29975,0.60034l1.1987,0l0,-1.30371l-1.1987,0c-0.29918,0.40221 -0.79848,0.60232 -1.29975,0.60232c-0.89952,0 -1.69998,-0.70139 -1.69998,-1.60289c0,-0.90349 0.80046,-1.60488 1.69998,-1.60488c0.49929,0 0.99859,0.30116 1.29975,0.60034l1.1987,0l0,-1.30173l-1.1987,0c-0.29918,0.40023 -0.69941,0.60034 -1.29975,0.60034a1.5811,1.5811 0 0 1 -1.59893,-1.60289c0,-0.80046 0.69941,-1.50383 1.59893,-1.50383c0.60034,0 0.99859,0.20011 1.29975,0.60232l1.1987,0l0,-1.30371l-1.1987,0c-0.29918,0.30116 -0.69941,0.60232 -1.29975,0.60232a1.5811,1.5811 0 0 1 -1.59893,-1.60289c0,-0.90349 0.69941,-1.60289 1.59893,-1.60289c0.60034,0 0.99859,0.20011 1.29975,0.60034l1.1987,0l0,-1.30371l-1.1987,0c-0.29918,0.40221 -0.69941,0.60232 -1.29975,0.60232c-0.89952,0 -1.59893,-0.70139 -1.59893,-1.60488s0.69941,-1.60289 1.59893,-1.60289c0.60034,0 0.99859,0.30116 1.29975,0.60034l1.1987,0l0,-1.30173l-1.1987,0c-0.29918,0.40023 -0.69941,0.60232 -1.29975,0.60232c-0.89952,0 -1.59893,-0.70139 -1.59893,-1.50383c0,-0.90349 0.69941,-1.60488 1.59893,-1.60488c0.60034,0 0.99859,0.20011 1.29975,0.60232l1.1987,0l4.7968,-2.40533c3.49903,0.80244 6.09853,0.60232 9.89475,-1.00057c4.4996,-1.90604 9.29639,-1.3057 14.09319,2.00312z" fill-rule="evenodd" clip-rule="evenodd" fill="#fff" id="svg_8"/>
    <path stroke="#000" d="m55.98292,65.12609c4.69575,-3.30684 9.49453,-3.90916 14.09121,-2.0051c3.69914,1.60289 6.29666,1.80301 9.79371,1.00057l4.89982,2.40533l1.09964,0a1.61082,1.61082 0 0 1 1.29975,-0.60232c0.89754,0 1.698,0.70139 1.698,1.60488c0,0.80046 -0.80046,1.50383 -1.698,1.50383a1.61676,1.61676 0 0 1 -1.29975,-0.60232l-1.09964,0l0,1.30173l1.09964,0c0.30116,-0.29918 0.80046,-0.60034 1.29975,-0.60034c0.89754,0 1.698,0.70139 1.698,1.60289s-0.80046,1.60488 -1.698,1.60488a1.61082,1.61082 0 0 1 -1.29975,-0.60232l-1.09964,0l0,1.30371l1.09964,0a1.61082,1.61082 0 0 1 1.29975,-0.60232c0.89754,0 1.698,0.70139 1.698,1.60289c0,0.9015 -0.80046,1.60289 -1.698,1.60289c-0.49929,0 -0.99859,-0.29918 -1.29975,-0.60232l-1.09964,0l0,1.30371l1.09964,0a1.61082,1.61082 0 0 1 1.29975,-0.60232c0.89754,0 1.698,0.70139 1.698,1.50383c0,0.9015 -0.80046,1.60289 -1.698,1.60289a1.61478,1.61478 0 0 1 -1.29975,-0.60034l-1.09964,0l0,1.3057l1.09964,0c0.30116,-0.29918 0.80046,-0.60034 1.29975,-0.60034c0.89754,0 1.698,0.70139 1.698,1.60488c0,0.9015 -0.80046,1.60289 -1.698,1.60289a1.61082,1.61082 0 0 1 -1.29975,-0.60232l-1.09964,0l0,1.30371l1.09964,0a1.61478,1.61478 0 0 1 1.29975,-0.60034c0.99859,0 1.698,0.70139 1.698,1.60488c0,0.80046 -0.70139,1.50185 -1.698,1.50185a1.90009,1.90009 0 0 1 -1.29975,-0.50128l-1.09964,0l0,1.30371l1.09964,0a1.61676,1.61676 0 0 1 1.29975,-0.60232c0.99859,0 1.698,0.70139 1.698,1.50383c0,0.9015 -0.70139,1.60488 -1.698,1.60488a1.61676,1.61676 0 0 1 -1.29975,-0.60232l-1.09964,0c-2.79764,2.40533 -5.69632,3.30684 -8.99721,3.30684c-2.79764,0 -4.49762,-0.40221 -6.29666,-1.60488c-2.89868,-2.0051 -6.49281,-2.0051 -9.39546,0c0.60034,0.30116 1.00255,1.00255 1.00255,1.70394c0,1.1036 -0.9015,2.0051 -2.00114,2.0051l-6.29666,0a2.00709,2.00709 0 0 1 -1.99916,-2.0051c0,-0.70139 0.49929,-1.40278 1.09964,-1.70394c-2.89868,-2.0051 -6.49678,-2.0051 -9.49453,0c-1.79905,1.20267 -3.39798,1.60488 -6.19561,1.60488c-3.39798,0 -6.29666,-0.90349 -8.99523,-3.30684l-1.1987,0a1.61082,1.61082 0 0 1 -1.29975,0.60232c-0.89952,0 -1.69998,-0.70139 -1.69998,-1.60488c0,-0.80244 0.80046,-1.50383 1.69998,-1.50383c0.49929,0 0.99859,0.2021 1.29975,0.60232l1.1987,0l0,-1.30371l-1.1987,0a1.89217,1.89217 0 0 1 -1.29975,0.50128c-0.89952,0 -1.69998,-0.70139 -1.69998,-1.50185c0,-0.90349 0.80046,-1.60488 1.69998,-1.60488c0.49929,0 0.99859,0.20011 1.29975,0.60034l1.1987,0l0,-1.30371l-1.1987,0c-0.29918,0.40221 -0.79848,0.60232 -1.29975,0.60232c-0.89952,0 -1.69998,-0.70139 -1.69998,-1.60289c0,-0.90349 0.80046,-1.60488 1.69998,-1.60488c0.49929,0 0.99859,0.30116 1.29975,0.60034l1.1987,0l0,-1.30173l-1.1987,0c-0.29918,0.40023 -0.69941,0.60034 -1.29975,0.60034a1.5811,1.5811 0 0 1 -1.59893,-1.60289c0,-0.80046 0.69941,-1.50383 1.59893,-1.50383c0.60034,0 0.99859,0.20011 1.29975,0.60232l1.1987,0l0,-1.30371l-1.1987,0c-0.29918,0.30116 -0.69941,0.60232 -1.29975,0.60232a1.5811,1.5811 0 0 1 -1.59893,-1.60289c0,-0.90349 0.69941,-1.60289 1.59893,-1.60289c0.60034,0 0.99859,0.20011 1.29975,0.60232l1.1987,0l0,-1.30371l-1.1987,0c-0.29918,0.40221 -0.69941,0.60232 -1.29975,0.60232c-0.89952,0 -1.59893,-0.70139 -1.59893,-1.60488s0.69941,-1.60289 1.59893,-1.60289c0.60034,0 0.99859,0.30116 1.29975,0.60034l1.1987,0l0,-1.30173l-1.1987,0c-0.29918,0.40023 -0.69941,0.60232 -1.29975,0.60232c-0.89952,0 -1.59893,-0.70139 -1.59893,-1.50383c0,-0.90349 0.69941,-1.60488 1.59893,-1.60488c0.60034,0 0.99859,0.20011 1.29975,0.60232l1.1987,0l4.7968,-2.40533c3.49903,0.80244 6.09853,0.60232 9.89475,-1.00057c4.4996,-1.90802 9.29639,-1.30768 14.09319,2.00114m-2.5995,26.35563l5.09598,0m-2.49647,-26.35563l0,26.35761m24.48526,-26.75982l0,21.34683c-2.99577,1.50383 -5.49422,2.10417 -10.09289,-0.29918c-5.49819,-2.90661 -11.09544,-1.1036 -14.39435,2.30428c-3.29891,-3.40788 -8.99523,-5.21089 -14.39237,-2.30428c-4.69773,2.40533 -7.19618,1.80301 -10.19393,0.29918l0,-21.34683" fill="none" stroke-width="0.49" stroke-linecap="round" stroke-miterlimit="2.613" id="svg_9"/>
    <path stroke="#000" d="m82.57036,65.52631l0,21.64799c-4.29948,2.70451 -8.49792,2.80556 -12.09403,0.80046c-4.69773,-2.60545 -11.09544,-2.40533 -14.49342,3.50893c-3.39798,-5.91228 -9.89475,-6.1124 -14.49144,-3.50893c-3.59809,2.0051 -7.79653,1.90406 -12.09403,-0.80046l0,-21.64799" fill="none" stroke-width="0.49" stroke-linecap="round" stroke-linejoin="bevel" stroke-miterlimit="2.613" id="svg_10"/>
    <path stroke="null" fill-rule="evenodd" clip-rule="evenodd" fill="#fff" d="m37.3941,44.3796l1.79706,5.81322l6.19759,0l-5.09796,3.60602l1.79905,5.81322l-4.69575,-3.608l-4.79878,3.608l1.79905,-5.81322l-4.99691,-3.60602l6.09655,0l1.90009,-5.81322z" id="svg_11"/>
    <path stroke="#000" fill="none" stroke-width="0.49" stroke-miterlimit="2.613" d="m37.3941,44.3796l1.79706,5.81322l6.19759,0l-5.09796,3.60602l1.79905,5.81322l-4.69575,-3.608l-4.79878,3.608l1.79905,-5.81322l-4.99691,-3.60602l6.09655,0l1.90009,-5.81322" id="svg_12"/>
    <path stroke="null" fill-rule="evenodd" clip-rule="evenodd" fill="#fff" d="m74.5757,44.27855l1.79508,5.81322l6.19958,0l-5.09598,3.70707l1.79508,5.71415l-4.69377,-3.608l-4.79878,3.608l1.79905,-5.71415l-4.99889,-3.70707l6.09853,0l1.90009,-5.81322z" id="svg_13"/>
    <path stroke="#000" fill="none" stroke-width="0.49" stroke-miterlimit="2.613" d="m74.5757,44.27855l1.79508,5.81322l6.19958,0l-5.09598,3.70707l1.79508,5.71415l-4.69377,-3.608l-4.79878,3.608l1.79905,-5.71415l-4.99889,-3.70707l6.09853,0l1.90009,-5.81322" id="svg_14"/>
    <path stroke="null" fill-rule="evenodd" clip-rule="evenodd" fill="#fff" d="m55.98292,98.19842l1.79706,5.81322l6.19958,0l-5.09598,3.60602l1.79508,5.81124l-4.69575,-3.60602l-4.7968,3.60602l1.79905,-5.81124l-4.99889,-3.60602l6.09655,0l1.90009,-5.81322z" id="svg_15"/>
    <path stroke="#000" fill="none" stroke-width="0.49" stroke-miterlimit="2.613" d="m55.98292,98.19842l1.79706,5.81322l6.19958,0l-5.09598,3.60602l1.79508,5.81124l-4.69575,-3.60602l-4.7968,3.60602l1.79905,-5.81124l-4.99889,-3.60602l6.09655,0l1.90009,-5.81322" id="svg_16"/>
    <path stroke="null" d="m22.70057,18.72338c1.69998,-2.10417 3.99832,-2.30627 4.99691,-2.30627c7.29723,-0.20011 10.99439,5.21089 10.79428,9.62133c-0.20011,5.01078 -3.89925,6.1124 -4.39855,6.31449c0,0 -0.09907,1.00255 0.69941,2.50638c0.10105,0.10105 0.30116,0.20011 0.10105,0.50128c0,0.10105 -0.20011,0.30116 -0.20011,0.40023c0,0 -0.10105,0.2021 -0.10105,0.40221c0.10105,0.30116 0,0.70139 -0.20011,1.10162c-0.20011,0.40221 0,1.40278 0.09907,2.10417c0,0.20011 -0.09907,0.20011 -0.20011,0.10105c-0.40023,-0.30116 -0.80046,-1.30371 -0.89952,-1.80499c-0.89952,0.30116 -1.89811,1.60289 -2.29834,2.30627c0,0.09907 -0.20011,0.20011 -0.20011,0c0,-0.10105 -0.20011,-1.50383 1.1987,-2.60545c-0.69941,-0.20011 -1.39882,0.10105 -1.89811,0.40023c-0.09907,0 -0.29918,0.10105 -0.09907,-0.09907c0,0 0.40023,-1.00255 2.29834,-1.20267c0,-0.10105 0.40023,-0.70139 0.60034,-1.20267a6.54433,6.54433 0 0 0 -0.89952,-2.40533c-0.10105,0 -1.39882,0.10105 -2.39939,0.80244c0,0.10105 -0.09907,0.20011 -0.09907,0.40221l0,0.40023s-0.10105,0.40023 -0.60034,0.60034c0,0 -1.60091,0.50128 -2.39939,0.90349c0,0 -0.69941,0.29918 -1.1987,1.00255c-0.09907,0.09907 -0.49929,0.80046 -1.09964,0.9015c-0.20011,0.10105 -0.49929,0.2021 -0.70139,0.40023c-0.20011,0.30116 -0.39825,0.50128 -0.60034,0.60232c-0.20011,0.10105 -0.59836,0.60232 -0.89952,1.20267c-0.09907,0.09907 -0.20011,0.30116 -0.20011,0l0,-0.60034c0.20011,-0.80244 0.60034,-1.20267 0.89952,-1.50383c-0.09907,-0.10105 -0.09907,0 -0.29918,-0.10105c-0.49929,0.10105 -2.39741,-0.10105 -3.49903,0.40023c0,0.10105 -0.09907,0.10105 0,-0.10105c0.20011,-0.20011 0.60034,-1.30173 2.99973,-1.30173c0.09907,-0.30116 -1.09964,-0.80046 -1.59893,-0.80046c-0.20011,0 -0.09907,-0.10105 0,-0.2021c0.09907,0 1.1987,-0.50128 2.49845,0.30116c0,0 0.89952,-0.30116 1.4008,-0.30116c0.60034,-0.50128 1.89811,-1.80301 2.39939,-2.0051l0,-0.70139c-0.70139,-1.00255 -0.80046,-2.40533 -0.80046,-3.20777c-1.39882,-0.10105 -2.89868,-1.40278 -3.69914,-2.40533c-1.09964,-0.10105 -3.09682,-1.00255 -4.19645,-3.20777c-3.69914,2.70649 -6.09853,7.51518 -6.29864,7.71727c-0.09907,0.09907 -0.09907,0.09907 -0.20011,0c-0.40023,-0.70139 -0.49929,-1.90406 -0.29918,-2.20522c0.69941,-2.0051 2.39939,-4.70962 4.2975,-7.11495c-0.69941,-4.00823 2.99775,-5.41101 4.49762,-5.31194c1.50383,-0.00198 2.50242,1.00057 2.70253,1.30173z" fill-rule="evenodd" clip-rule="evenodd" id="svg_17"/>
    <path stroke="null" d="m22.40138,20.52639s1.79905,-2.90661 4.09739,-3.00568c-0.69941,0.60034 -0.80046,1.00057 -0.80046,1.00057l0,0.2021s1.00057,-1.1036 2.99973,-1.1036c-0.70139,0.50128 -1.00057,1.00255 -1.00057,1.00255l0,0.10105c0,0.09907 1.4008,-1.00255 3.59809,-0.10105c-0.49929,0.10105 -1.1987,0.40023 -1.29975,0.60232c-0.09907,0.10105 0,0.10105 0,0.10105c2.5995,-0.40221 4.99691,2.5044 4.89784,5.10985c0,1.90406 -1.29975,3.80811 -3.79821,4.41044c-0.29918,0.40023 -0.89952,2.00312 -0.89952,2.00312c-1.09964,0.40023 -2.5995,1.40278 -2.79962,1.60488l0,0.10105l-0.09907,-0.2021c-0.40023,-0.70139 -0.40023,-3.00766 -0.49929,-3.30684c-2.49845,0.20011 -3.89925,-2.20522 -4.2975,-2.40533c-2.79764,-0.2021 -4.09739,-3.40788 -4.2975,-3.608c-2.10021,1.30371 -4.2975,4.00823 -5.69632,6.1124c0,-0.09907 -0.10105,0 0,-0.09907c1.59893,-3.40788 3.49704,-5.11183 4.09739,-6.1124c-1.29975,-2.70649 1.99916,-4.70962 3.39798,-4.5095c1.99916,-0.00198 2.39939,2.10219 2.39939,2.10219z" fill-rule="evenodd" clip-rule="evenodd" fill="#fff" id="svg_18"/>
    <path stroke="null" d="m17.20436,21.8301c0,-0.40023 0.20011,-0.60034 0.60034,-0.60034c0.29918,0 0.59836,0.20011 0.59836,0.60034c0,0.30116 -0.29918,0.60034 -0.59836,0.60034c-0.40023,0 -0.60034,-0.29918 -0.60034,-0.60034zm36.2801,-3.10672c1.698,-2.10417 3.89727,-2.30627 4.99691,-2.30627c7.29921,-0.20011 10.99439,5.21089 10.79626,9.62133c-0.2021,5.01078 -3.99832,6.1124 -4.4996,6.31449c0,0 0,1.00255 0.80046,2.50638c0.10105,0.10105 0.2021,0.20011 0.10105,0.50128a0.76281,0.76281 0 0 0 -0.2021,0.40023c-0.10105,0 -0.10105,0.2021 -0.10105,0.40221c0.10105,0.30116 0,0.70139 -0.2972,1.10162c-0.10105,0.40221 0.10105,1.40278 0.2021,2.10417c0,0.20011 -0.10105,0.20011 -0.2021,0.10105c-0.49929,-0.30116 -0.80046,-1.30371 -0.9015,-1.80499c-0.89754,0.30116 -1.89613,1.60289 -2.29834,2.30627c0,0.09907 -0.19813,0.20011 -0.19813,0c-0.10105,-0.10105 -0.2021,-1.50383 1.1987,-2.60545c-0.70139,-0.20011 -1.50185,0.10105 -2.00114,0.40023c0,0 -0.2021,0.10105 -0.10105,-0.09907c0.10105,0 0.49929,-1.00255 2.39939,-1.20267c0,-0.10105 0.40221,-0.70139 0.49929,-1.20267c0,-0.70139 -0.39825,-1.60289 -0.79649,-2.40533c-0.10105,0 -1.4008,0.10105 -2.39939,0.80244c0,0.10105 -0.2021,0.20011 -0.2021,0.40221l0,0.40023s0,0.40023 -0.49929,0.60034c-0.10105,0 -1.698,0.50128 -2.39939,0.90349c-0.10105,0 -0.69941,0.29918 -1.29975,1.00255c-0.09907,0.09907 -0.49929,0.80046 -0.99859,0.9015c-0.20011,0.10105 -0.49929,0.2021 -0.69941,0.40023c-0.20011,0.30116 -0.49929,0.50128 -0.60034,0.60232c-0.20011,0.10105 -0.69941,0.60232 -0.99859,1.20267c0,0.09907 -0.09907,0.30116 -0.09907,0l0,-0.60034c0.20011,-0.80244 0.49929,-1.20267 0.89952,-1.50383c-0.20011,-0.10105 -0.20011,0 -0.29918,-0.10105c-0.60034,0.10105 -2.39939,-0.10105 -3.49903,0.40023c-0.09907,0.10105 -0.20011,0.10105 -0.09907,-0.10105c0.20011,-0.20011 0.59836,-1.30173 3.09682,-1.30173c0,-0.30116 -1.09964,-0.80046 -1.698,-0.80046c-0.09907,0 0,-0.10105 0,-0.2021c0.20011,0 1.1987,-0.50128 2.49845,0.30116c0.09907,0 0.99859,-0.30116 1.39882,-0.30116c0.60034,-0.50128 1.99916,-1.80301 2.49845,-2.0051c0,-0.09907 -0.10105,-0.40023 0,-0.70139l-0.10105,0c-0.59836,-1.00255 -0.79848,-2.40533 -0.69941,-3.20777c-1.39882,-0.10105 -2.99775,-1.40278 -3.79821,-2.40533c-0.99859,-0.10105 -2.99775,-1.00255 -4.09739,-3.20777c-3.69914,2.70649 -6.19561,7.51518 -6.29666,7.71727c-0.09907,0.09907 -0.09907,0.09907 -0.20011,0c-0.40023,-0.70139 -0.49929,-1.90406 -0.40023,-2.20522c0.80046,-2.0051 2.49845,-4.70962 4.39855,-7.11495c-0.79848,-4.00823 2.99973,-5.41101 4.39855,-5.31194c1.49987,-0.00198 2.5995,1.00057 2.79962,1.30173z" fill-rule="evenodd" clip-rule="evenodd" id="svg_19"/>
    <path stroke="null" d="m53.1833,20.52639s1.79905,-2.90661 3.99832,-3.00568c-0.59836,0.60034 -0.69941,1.00057 -0.69941,1.00057l0,0.2021s0.99859,-1.1036 2.99577,-1.1036a3.83585,3.83585 0 0 0 -0.99859,1.00255l0,0.10105c0,0.09907 1.4008,-1.00255 3.59809,-0.10105c-0.49929,0.10105 -1.29975,0.40023 -1.4008,0.60232c0,0.10105 0.10105,0.10105 0.10105,0.10105c2.5995,-0.40221 4.89982,2.5044 4.89982,5.10985c-0.10105,1.90406 -1.4008,3.80811 -3.80019,4.41044c-0.39825,0.40023 -0.89754,2.00312 -0.89754,2.00312c-1.1987,0.40023 -2.5995,1.40278 -2.79764,1.60488l0,0.10105l-0.10105,-0.2021c-0.49929,-0.70139 -0.49929,-3.00766 -0.49929,-3.30684c-2.50044,0.20011 -3.99832,-2.20522 -4.2975,-2.40533c-2.89868,-0.2021 -4.09739,-3.40788 -4.2975,-3.608c-2.19927,1.30371 -4.2975,4.00823 -5.79737,6.1124c0.09907,-0.09907 0,0 0,-0.09907c1.698,-3.40788 3.59809,-5.11183 4.09739,-6.1124c-1.20068,-2.70649 2.09823,-4.70962 3.49704,-4.5095c2.00114,-0.00198 2.39939,2.10219 2.39939,2.10219z" fill-rule="evenodd" clip-rule="evenodd" fill="#fff" id="svg_20"/>
    <path stroke="null" d="m47.88721,21.8301c0,-0.40023 0.29918,-0.60034 0.59836,-0.60034c0.40023,0 0.60034,0.20011 0.60034,0.60034c0,0.30116 -0.20011,0.60034 -0.60034,0.60034c-0.29918,0 -0.59836,-0.29918 -0.59836,-0.60034zm36.18104,-3.10672c1.698,-2.10417 3.89727,-2.30627 4.99889,-2.30627c7.1942,-0.20011 10.89334,5.21089 10.7923,9.62133c-0.2021,5.01078 -3.99832,6.1124 -4.49762,6.31449c0,0 -0.10105,1.00255 0.79649,2.50638c0,0.10105 0.2021,0.20011 0.10105,0.50128c-0.10105,0.10105 -0.2021,0.30116 -0.2972,0.40023c0,0 -0.10105,0.2021 0,0.40221c0.09709,0.30116 0,0.70139 -0.30116,1.10162c-0.2021,0.40221 0.10105,1.40278 0.2021,2.10417c0,0.20011 -0.10105,0.20011 -0.2021,0.10105c-0.49929,-0.30116 -0.80046,-1.30371 -0.99859,-1.80499c-0.80046,0.30116 -1.90009,1.60289 -2.19729,2.30627c0,0.09907 -0.2021,0.20011 -0.30116,0c0,-0.10105 -0.10105,-1.50383 1.29975,-2.60545c-0.70139,-0.20011 -1.50185,0.10105 -2.00114,0.40023c0,0 -0.19813,0.10105 -0.09709,-0.09907c0,0 0.49929,-1.00255 2.29834,-1.20267c0.09709,-0.10105 0.49929,-0.70139 0.59638,-1.20267c0,-0.70139 -0.39825,-1.60289 -0.79649,-2.40533c-0.10105,0 -1.50185,0.10105 -2.39939,0.80244c-0.10105,0.10105 -0.2021,0.20011 -0.2021,0.40221l0,0.40023s-0.09709,0.40023 -0.49929,0.60034c-0.10105,0 -1.698,0.50128 -2.39939,0.90349c-0.09709,0 -0.79649,0.29918 -1.29579,1.00255c-0.10105,0.09907 -0.49929,0.80046 -1.09964,0.9015c-0.10105,0.10105 -0.40221,0.2021 -0.60034,0.40023c-0.30116,0.30116 -0.50326,0.50128 -0.70139,0.60232c-0.2021,0.10105 -0.60034,0.60232 -0.9015,1.20267c0,0.09907 -0.10105,0.30116 -0.10105,0c-0.09709,-0.20011 0,-0.60034 0,-0.60034c0.10105,-0.80244 0.50326,-1.20267 0.80046,-1.50383c-0.10105,-0.10105 -0.10105,0 -0.2021,-0.10105c-0.60034,0.10105 -2.39543,-0.10105 -3.49903,0.40023c-0.09709,0.10105 -0.19813,0.10105 -0.09709,-0.10105c0.19813,-0.20011 0.60034,-1.30173 3.09483,-1.30173c0,-0.30116 -1.09964,-0.80046 -1.698,-0.80046c-0.19813,0 -0.10105,-0.10105 0,-0.2021c0.10105,0 1.1987,-0.50128 2.50044,0.30116c0.10105,0 0.89754,-0.30116 1.4008,-0.30116c0.60034,-0.50128 1.89613,-1.80301 2.49647,-2.0051c0,-0.09907 -0.10105,-0.40023 0,-0.70139l-0.10105,0c-0.69743,-1.00255 -0.79649,-2.40533 -0.69743,-3.20777c-1.50185,-0.10105 -2.99973,-1.40278 -3.80019,-2.40533c-0.99859,-0.10105 -2.99973,-1.00255 -4.09739,-3.20777c-3.79623,2.70649 -6.19561,7.51518 -6.29666,7.71727c-0.10105,0.09907 -0.2021,0.09907 -0.2021,0c-0.39825,-0.70139 -0.49929,-1.90406 -0.39825,-2.20522c0.70139,-2.0051 2.50044,-4.70962 4.29948,-7.11495c-0.70139,-4.00823 3.09483,-5.41101 4.49762,-5.31194c1.50185,-0.00198 2.60148,1.00057 2.80358,1.30173z" fill-rule="evenodd" clip-rule="evenodd" id="svg_21"/>
    <path stroke="null" d="m83.76907,20.52639s1.698,-2.90661 3.99832,-3.00568c-0.60034,0.60034 -0.80046,1.00057 -0.80046,1.00057l0,0.2021s1.09964,-1.1036 3.0988,-1.1036a3.75462,3.75462 0 0 0 -0.99859,1.00255l0,0.10105c0,0.09907 1.39684,-1.00255 3.59413,-0.10105c-0.49929,0.10105 -1.29579,0.40023 -1.39684,0.60232l0,0.10105c2.69659,-0.40221 4.99493,2.5044 4.99493,5.10985c-0.10105,1.90406 -1.4008,3.80811 -3.79623,4.41044c-0.40221,0.40023 -0.9015,2.00312 -0.9015,2.00312c-1.1987,0.40023 -2.59752,1.40278 -2.79764,1.60488c0,0 -0.10105,0 0,0.10105l-0.2021,-0.2021c-0.39825,-0.70139 -0.39825,-3.00766 -0.39825,-3.30684c-2.59752,0.20011 -3.99832,-2.20522 -4.29948,-2.40533c-2.89868,-0.2021 -4.09342,-3.40788 -4.29552,-3.608c-2.19729,1.30371 -4.29948,4.00823 -5.79737,6.1124c0.10105,-0.09907 0,0 0,-0.09907c1.59893,-3.40788 3.59809,-5.11183 4.09739,-6.1124c-1.1987,-2.70649 1.99718,-4.70962 3.49903,-4.5095c1.99916,-0.00198 2.40137,2.10219 2.40137,2.10219z" fill-rule="evenodd" clip-rule="evenodd" fill="#fff" id="svg_22"/>
    <path stroke="null" d="m78.47298,21.8301c0,-0.40023 0.2972,-0.60034 0.60034,-0.60034c0.2972,0 0.60034,0.20011 0.60034,0.60034a0.64591,0.64591 0 0 1 -0.60034,0.60034a0.64195,0.64195 0 0 1 -0.60034,-0.60034z" fill-rule="evenodd" clip-rule="evenodd" id="svg_23"/>
   </g>
   <rect id="svg_26" height="1.83486" width="0" y="24.51951" x="76.10393" stroke="null" fill="#fff"/>
  </g>
 </g>

</svg>