<svg t="1662551778291" class="icon" viewBox="0 0 1024 1024" version="1.1" xmlns="http://www.w3.org/2000/svg" p-id="2605"><path d="M512 73.142857c242.358857 0 438.857143 196.498286 438.857143 438.857143s-196.498286 438.857143-438.857143 438.857143S73.142857 754.358857 73.142857 512 269.641143 73.142857 512 73.142857m0-73.142857C229.229714 0 0 229.229714 0 512s229.229714 512 512 512 512-229.229714 512-512S794.770286 0 512 0z" p-id="2606" fill="#cdcdcd"></path><path d="M659.748571 548.571429H369.371429c-81.371429 1.097143-146.688 74.605714-146.285715 164.608v148.406857c165.558857 167.789714 419.620571 167.789714 585.142857 0v-149.613715c0.402286-43.593143-15.140571-85.577143-43.081142-116.297142-27.977143-30.756571-65.974857-47.725714-105.398858-47.067429z" p-id="2607" fill="#cdcdcd"></path><path d="M515.657143 338.651429m-146.285714 0a146.285714 146.285714 0 1 0 292.571428 0 146.285714 146.285714 0 1 0-292.571428 0Z" p-id="2608" fill="#cdcdcd"></path></svg>