<svg xmlns="http://www.w3.org/2000/svg" xmlns:xlink="http://www.w3.org/1999/xlink" fill="none" version="1.1"  viewBox="0 0 1953.337890625 1848.42822265625"><g style="mix-blend-mode:passthrough"><g style="mix-blend-mode:passthrough" transform="matrix(0.5130189061164856,0.8583773374557495,-0.8583773374557495,0.5130189061164856,583.2381071668351,-962.2674368937733)"><path d="M1845.729453125,160.77167187499998C1953.059453125,183.546671875,2080.600453125,140.20767187500002,2165.569453125,209.620671875C2250.789453125,279.234671875,2228.489453125,415.754671875,2278.109453125,513.973671875C2324.0494531249997,604.933671875,2421.939453125,664.440671875,2445.399453125,763.606671875C2471.179453125,872.521671875,2468.489453125,993.958671875,2414.949453125,1092.248671875C2361.069453125,1191.148671875,2257.089453125,1252.058671875,2154.279453125,1298.038671875C2057.577453125,1341.278671875,1951.506453125,1341.078671875,1845.729453125,1346.768671875C1734.441453125,1352.758671875,1617.321453125,1381.648671875,1517.398453125,1332.288671875C1415.926453125,1282.168671875,1363.907453125,1172.218671875,1301.384453125,1077.888671875C1235.242353125,978.084671875,1129.377153125,882.816671875,1140.500346125,763.606671875C1151.705453125,643.519671875,1310.541453125,592.746671875,1357.035453125,481.459671875C1413.755453125,345.697671875,1313.562453125,135.653671875,1436.575453125,54.930971875C1556.3954531250001,-23.697228125000002,1705.535453125,131.023371875,1845.729453125,160.77167187499998Z" fill-rule="evenodd" fill="#00477F" fill-opacity="0.501960813999176"/></g><g style="mix-blend-mode:passthrough" transform="matrix(0.5130189061164856,0.8583773374557495,-0.8583773374557495,0.5130189061164856,621.0744768296718,-1094.737069834373)"><path d="M1981.3964453125,127.883C2088.7264453125,150.658,2216.2674453125,107.319,2301.2364453125,176.732C2386.4564453125,246.346,2364.1564453125,382.866,2413.7764453125,481.085C2459.7164453124997,572.045,2557.6064453125,631.552,2581.0664453125,730.718C2606.8464453125,839.633,2604.1564453125,961.07,2550.6164453125,1059.36C2496.7364453125,1158.26,2392.7564453125,1219.17,2289.9464453125,1265.15C2193.2444453125,1308.39,2087.1734453125,1308.19,1981.3964453125,1313.88C1870.1084453125,1319.87,1752.9884453125,1348.76,1653.0654453125,1299.4C1551.5934453125,1249.28,1499.5744453125,1139.33,1437.0514453125,1045C1370.9093453125,945.196,1265.0441453125,849.928,1276.1673383125,730.718C1287.3724453125,610.631,1446.2084453125,559.858,1492.7024453125,448.571C1549.4224453125,312.809,1449.2294453125,102.765,1572.2424453125,22.0423C1692.0624453125001,-56.5859,1841.2024453125,98.1347,1981.3964453125,127.883Z" fill-rule="evenodd" fill="#0080A7" fill-opacity="0.20000000298023224"/></g></g></svg>