<svg xmlns="http://www.w3.org/2000/svg" id="Layer_1" data-name="Layer 1" width="200" height="200" viewBox="0 0 200 200"><defs><style>.cls-1{fill:#00467f;}.cls-2{fill:#fff;}.cls-3{fill:none;}</style></defs><title>university-of-auckland-logo-freelogovectors.net_</title><polygon class="cls-1" points="10.53 39.7 36.13 14.1 189.47 14.1 189.47 160.25 163.82 185.9 10.63 185.9 10.53 39.7"/><polygon class="cls-2" points="60.46 114.7 56.76 114.7 56.76 112.11 60.2 112.11 60.2 110.53 56.76 110.53 56.76 108.04 60.36 108.04 60.36 106.51 55.17 106.51 55.17 116.24 60.46 116.24 60.46 114.7"/><polygon class="cls-2" points="105.26 108.04 105.26 106.51 100.13 106.51 100.13 116.24 105.37 116.24 105.37 114.7 101.67 114.7 101.67 112.11 105.16 112.11 105.16 110.53 101.67 110.53 101.67 108.04 105.26 108.04"/><polygon class="cls-2" points="46.55 112.17 50.99 112.17 50.99 116.24 52.53 116.24 52.53 106.51 50.99 106.51 50.99 110.58 46.55 110.58 46.55 106.51 45.02 106.51 45.02 116.24 46.55 116.24 46.55 112.17"/><path class="cls-2" d="M69.82,116.34a3.89,3.89,0,0,0,3-1.11,4.22,4.22,0,0,0,1-2.91v-5.87H72.26v5.66a3,3,0,0,1-.48,2,2.35,2.35,0,0,1-1.85.69,2.21,2.21,0,0,1-1.69-.74,2.39,2.39,0,0,1-.48-1.8v-5.71H66.23v6a3.7,3.7,0,0,0,1.16,2.91A3.44,3.44,0,0,0,69.82,116.34Z"/><path class="cls-2" d="M84.16,116.24v-9.73H82.68v7c-.16-.16-5.5-7-5.5-7H76v9.73h1.48v-6.93c.16.16,5.4,6.93,5.4,6.93Z"/><path class="cls-2" d="M98.18,106.51H96.59s-2.33,6.13-2.43,6.29l-2.44-6.29H90.14l3.8,9.83h.48Z"/><path class="cls-2" d="M113.3,116.24h1.85l-.26-.37c-.53-.8-.74-1.11-1.06-1.69s-.58-1.12-.9-1.54a3.75,3.75,0,0,0-.84-1,2.5,2.5,0,0,0,1.27-2.33,2.8,2.8,0,0,0-.8-2.06,3.15,3.15,0,0,0-2.17-.74h-2.32v9.73h1.53v-4.07h.32c.53,0,1,.16,2.11,2.06Zm-1.48-6.93a1.26,1.26,0,0,1-.32,1,1.5,1.5,0,0,1-1.16.37h-.63V108h.63c1,0,1.48.42,1.48,1.32Z"/><path class="cls-2" d="M119.07,108a2.56,2.56,0,0,1,1.85.95l.21.21.05.06v-2h0l-.05-.06a3.32,3.32,0,0,0-2-.68,2.54,2.54,0,0,0-2.7,2.69c0,1.38,1,2.12,1.91,2.75l.21.16.42.32a2.46,2.46,0,0,1,.58.48,1.44,1.44,0,0,1,.53,1,1.09,1.09,0,0,1-1.21,1,2.81,2.81,0,0,1-2.12-1.27l-.21-.32,0-.1,0,2.38h0a3.63,3.63,0,0,0,2.49.9,2.28,2.28,0,0,0,1.79-.8,2.68,2.68,0,0,0,.74-2,3.42,3.42,0,0,0-1.9-3l-.69-.42a2.9,2.9,0,0,1-.58-.42,1.19,1.19,0,0,1-.53-1A1.1,1.1,0,0,1,119.07,108Z"/><path class="cls-2" d="M139,116.24h1.53v-5.08l3.28-4.65H142s-2.17,3-2.22,3.12c-.05-.11-2.17-3.12-2.17-3.12h-1.9s3.28,4.6,3.28,4.65S139,116.24,139,116.24Z"/><rect class="cls-2" x="86.75" y="106.51" width="1.53" height="9.73"/><rect class="cls-2" x="124.25" y="106.51" width="1.53" height="9.73"/><polygon class="cls-2" points="39.3 116.24 40.84 116.24 40.84 108.04 43.75 108.04 43.75 106.51 36.34 106.51 36.34 108.04 39.3 108.04 39.3 116.24"/><polygon class="cls-2" points="130.65 116.24 132.24 116.24 132.24 108.04 135.15 108.04 135.15 106.51 127.74 106.51 127.74 108.04 130.65 108.04 130.65 116.24"/><polygon class="cls-2" points="159.64 111.8 162.92 111.8 162.92 110.26 159.64 110.26 159.64 108.04 162.92 108.04 162.92 106.51 158.1 106.51 158.1 116.13 159.64 116.13 159.64 111.8"/><path class="cls-2" d="M151.6,116.4a4.54,4.54,0,0,0,3.44-1.48A5.46,5.46,0,0,0,155,108a4.61,4.61,0,0,0-6.77,0,5.2,5.2,0,0,0-1.27,3.44,5,5,0,0,0,1.27,3.43A4.53,4.53,0,0,0,151.6,116.4ZM149.43,109a2.89,2.89,0,0,1,2.22-.95,3.16,3.16,0,0,1,3.12,3.39,3.56,3.56,0,0,1-.9,2.43,3.07,3.07,0,0,1-4.44,0,3.74,3.74,0,0,1,0-4.87Z"/><path class="cls-2" d="M122,123h-1.85l-6.4,16.61h2.69s1.8-4.6,1.8-4.71h5.71c.06.11,1.91,4.71,1.91,4.71h2.75Zm-2.7,9.31c0-.16,1.64-4.39,1.75-4.71.1.32,1.85,4.55,1.9,4.71Z"/><polygon class="cls-2" points="111.45 137.03 104.95 137.03 104.95 123.11 102.3 123.11 102.3 139.67 111.45 139.67 111.45 137.03"/><path class="cls-2" d="M40.84,135h5.71c.05.11,1.9,4.71,1.9,4.71h2.7l-6.66-16.61h-1.8l-6.4,16.61H39S40.79,135,40.84,135Zm2.75-7.35c.1.32,1.8,4.55,1.9,4.71H41.84C41.9,132.16,43.48,127.93,43.59,127.61Z"/><path class="cls-2" d="M82.57,138.35v-3.23l-.1,0-.37.27a8.7,8.7,0,0,1-4.87,1.74,5.32,5.32,0,0,1-4-1.58,5.88,5.88,0,0,1-1.53-4.18,6,6,0,0,1,1.53-4.18,5.26,5.26,0,0,1,3.86-1.64,8.35,8.35,0,0,1,4.81,1.64l.32.21.11,0-.11-3.22h0A11.53,11.53,0,0,0,77.07,123c-4.71,0-8.15,3.65-8.15,8.72a8.7,8.7,0,0,0,1.91,5.4A7.69,7.69,0,0,0,77,139.94a10.79,10.79,0,0,0,5.61-1.59Z"/><path class="cls-2" d="M91.62,130.94c0-.1,6.5-7.83,6.5-7.83H94.79s-5.4,6.51-5.61,6.83v-6.83H86.54v16.56h2.64v-7.46c.21.27,6.93,7.46,6.93,7.46h3.6Z"/><path class="cls-2" d="M161.86,125.81a7.57,7.57,0,0,0-6-2.7H150v16.56h5.87a7.64,7.64,0,0,0,5.82-2.54,9,9,0,0,0,.21-11.32ZM155.57,137h-3V125.76h2.91a5.44,5.44,0,0,1,4.23,1.69,5.84,5.84,0,0,1,1.38,4C161.07,133.48,159.9,137,155.57,137Z"/><path class="cls-2" d="M59.3,139.88a6.63,6.63,0,0,0,5-1.85A6.92,6.92,0,0,0,66,133.11v-10H63.32v9.58c0,1.69-.27,2.64-.85,3.28a4.17,4.17,0,0,1-3.17,1.16,3.78,3.78,0,0,1-2.91-1.27c-.58-.69-.79-1.37-.79-3.07v-9.73H53v10.21a6.17,6.17,0,0,0,6.35,6.61Z"/><path class="cls-2" d="M143.14,135c-.22-.31-9.31-11.85-9.31-11.85h-2.07v16.56h2.49V127.93c.21.32,9.2,11.74,9.2,11.74h2.17V123.11h-2.48Z"/><polygon class="cls-2" points="41.63 158.13 37.61 153.42 36.45 153.42 36.45 160.19 37.72 160.19 37.72 155.38 41.79 160.19 42.9 160.19 42.9 153.42 41.63 153.42 41.63 158.13"/><polygon class="cls-2" points="50.99 157.23 53.96 157.23 53.96 156.23 50.99 156.23 50.99 154.43 54.06 154.43 54.06 153.42 49.72 153.42 49.72 160.19 54.11 160.19 54.11 159.14 50.99 159.14 50.99 157.23"/><polygon class="cls-2" points="67.66 157.6 65.91 153.42 64.8 153.42 63 157.6 61.36 153.42 59.99 153.42 62.79 160.25 63.21 160.25 65.33 155.27 67.44 160.25 67.87 160.25 70.67 153.42 69.35 153.42 67.66 157.6"/><polygon class="cls-2" points="90.45 153.42 84.48 153.42 84.48 154.43 88.18 154.43 84.26 160.19 90.45 160.19 90.45 159.14 86.49 159.14 90.45 153.42"/><polygon class="cls-2" points="98.07 157.23 101.03 157.23 101.03 156.23 98.07 156.23 98.07 154.43 101.14 154.43 101.14 153.42 96.8 153.42 96.8 160.19 101.19 160.19 101.19 159.14 98.07 159.14 98.07 157.23"/><path class="cls-2" d="M109.86,153.42l-2.8,6.77h1.38l.63-1.64h3l.68,1.64h1.38l-3-6.77Zm-.37,4.13,1.06-2.65,1.17,2.65Z"/><polygon class="cls-2" points="121.61 153.42 120.28 153.42 120.28 160.19 124.89 160.19 124.89 159.14 121.61 159.14 121.61 153.42"/><path class="cls-2" d="M133.19,153.42l-2.8,6.77h1.37l.64-1.64h3l.69,1.64h1.38l-3-6.77Zm-.37,4.13,1.06-2.65,1.16,2.65Z"/><polygon class="cls-2" points="148.79 158.13 144.78 153.42 143.61 153.42 143.61 160.19 144.93 160.19 144.93 155.38 148.95 160.19 150.06 160.19 150.06 153.42 148.79 153.42 148.79 158.13"/><path class="cls-2" d="M161.6,153.85a4.11,4.11,0,0,0-1.86-.43h-2.8v6.77h2.75a4.31,4.31,0,0,0,1.91-.42,3.19,3.19,0,0,0,1.32-1.16,3.4,3.4,0,0,0,.47-1.75,3.36,3.36,0,0,0-.47-1.74A3.71,3.71,0,0,0,161.6,153.85Zm-.27,4.65a2.36,2.36,0,0,1-1.74.64h-1.38v-4.71h1.32a2.6,2.6,0,0,1,1.8.63,2.4,2.4,0,0,1,.64,1.75A2.32,2.32,0,0,1,161.33,158.5Z"/><rect class="cls-2" x="36.39" y="146.28" width="127.21" height="0.74"/><path class="cls-2" d="M74.37,39.75v26c0,6.09,4.55,23.86,25.39,32.59l.32.16.32-.16c20.84-8.73,25.39-26.45,25.39-32.59v-26Z"/><path class="cls-1" d="M79.93,56.94h0l-.16-.1a7.76,7.76,0,0,0-3.92-1.06h-.31v9.89c0,.21.68,21.42,24.59,31.47,23.91-10,24.6-31.26,24.6-31.47V55.78h-.32a7.72,7.72,0,0,0-3.91,1.06,8.43,8.43,0,0,1-8.36,0,7.68,7.68,0,0,0-7.83,0l0,0a8.34,8.34,0,0,1-8.25,0L96,56.79a7.81,7.81,0,0,0-7.77,0l-.11.05h0A8.26,8.26,0,0,1,79.93,56.94Z"/><path class="cls-1" d="M82.68,44.36a3.64,3.64,0,0,1,2.64-1.22c3.81-.11,5.77,2.75,5.66,5a3.27,3.27,0,0,1-2.33,3.28,2.31,2.31,0,0,0,.43,1.33s.1.1,0,.26-.11.16-.11.21a.27.27,0,0,0,0,.21.68.68,0,0,1-.15.59,2.69,2.69,0,0,0,0,1.11c0,.05,0,.05-.11,0a1.52,1.52,0,0,1-.47-.9,2.17,2.17,0,0,0-1.17,1.21c0,.06-.1.11-.1,0a1.53,1.53,0,0,1,.63-1.37,1.27,1.27,0,0,0-1,.21s-.11.05-.06,0,.22-.53,1.22-.64c0,0,.21-.37.32-.63a3.29,3.29,0,0,0-.48-1.27,2.39,2.39,0,0,0-1.21.42c-.06,0-.11.11-.11.16v.21s0,.21-.32.32a11.93,11.93,0,0,0-1.27.47,1.67,1.67,0,0,0-.63.53,1.43,1.43,0,0,1-.58.48.89.89,0,0,0-.37.21l-.32.32a1.71,1.71,0,0,0-.48.63c0,.06,0,.11,0,0v-.31a1.58,1.58,0,0,1,.48-.85c-.06,0-.06,0-.11,0a6.06,6.06,0,0,0-1.85.21s-.11,0,0-.05.31-.69,1.58-.75a1.45,1.45,0,0,0-.9-.42c-.1,0-.05-.05,0-.05a1.37,1.37,0,0,1,1.33.16s.47-.16.74-.21c.31-.22,1-.9,1.27-1.06v-.32h-.06a3.08,3.08,0,0,1-.42-1.69,3.29,3.29,0,0,1-2-1.27,3,3,0,0,1-2.17-1.64,12.26,12.26,0,0,0-3.28,4s0,0-.1,0A2,2,0,0,1,76.65,50a15.63,15.63,0,0,1,2.27-3.71,2.37,2.37,0,0,1,2.33-2.8,2.87,2.87,0,0,1,1.43.85Z"/><path class="cls-2" d="M86.49,44.67h0c.05-.16.42-.31.68-.31a2,2,0,0,0-1.85,0v0a2,2,0,0,1,.53-.53,2.22,2.22,0,0,0-1.59.58v0a1.26,1.26,0,0,1,.43-.53c-1.22.05-2.12,1.53-2.12,1.53A1.32,1.32,0,0,0,81.3,44.3c-.74-.1-2.48,1-1.8,2.33a20.4,20.4,0,0,0-2.17,3.23v0a12.36,12.36,0,0,1,3-3.17c.11.1.74,1.79,2.27,1.85a2.89,2.89,0,0,0,2.28,1.27,4.68,4.68,0,0,0,.26,1.74l.06,0h0a4.33,4.33,0,0,1,1.48-.84,5.91,5.91,0,0,1,.42-1.06,2.55,2.55,0,0,0,2-2.33C89.08,46,87.86,44.51,86.49,44.67Zm-6.4,1.64A.32.32,0,1,1,80.4,46,.34.34,0,0,1,80.09,46.31Z"/><path class="cls-1" d="M98.81,44.36a3.64,3.64,0,0,1,2.64-1.22c3.81-.11,5.77,2.75,5.66,5a3.28,3.28,0,0,1-2.32,3.28,2.25,2.25,0,0,0,.42,1.33c.05,0,.11.1.05.26s-.1.16-.1.21a.23.23,0,0,0,0,.21A.69.69,0,0,1,105,54a2.69,2.69,0,0,0,0,1.11c0,.05,0,.05-.1,0a1.48,1.48,0,0,1-.48-.9,2.12,2.12,0,0,0-1.16,1.21c0,.06-.11.11-.16,0a1.53,1.53,0,0,1,.63-1.37,1.27,1.27,0,0,0-1,.21s-.11.05-.06,0,.22-.53,1.22-.64c0,0,.21-.37.32-.63a2.64,2.64,0,0,0-.48-1.27,2.39,2.39,0,0,0-1.21.42c-.06,0-.11.11-.11.16v.21s0,.21-.32.32a11.93,11.93,0,0,0-1.27.47,1.67,1.67,0,0,0-.63.53,1.43,1.43,0,0,1-.58.48.89.89,0,0,0-.37.21l-.32.32a1.71,1.71,0,0,0-.48.63c0,.06,0,.11,0,0v-.31a2.09,2.09,0,0,1,.48-.85c-.06,0-.06,0-.11,0a6.06,6.06,0,0,0-1.85.21s-.11,0,0-.05.31-.69,1.58-.75a1.45,1.45,0,0,0-.9-.42c-.1,0,0-.05,0-.05a1.37,1.37,0,0,1,1.33.16s.47-.16.74-.21c.31-.22,1-.9,1.27-1.06v-.32h-.06a3.08,3.08,0,0,1-.42-1.69,3.29,3.29,0,0,1-2-1.27,3,3,0,0,1-2.17-1.64,12.26,12.26,0,0,0-3.28,4c-.05,0-.05,0-.1,0A2,2,0,0,1,92.73,50,15.63,15.63,0,0,1,95,46.31a2.37,2.37,0,0,1,2.33-2.8,3.11,3.11,0,0,1,1.48.85Z"/><path class="cls-2" d="M102.62,44.67h0c0-.16.42-.31.69-.31a2,2,0,0,0-1.86,0v0a2,2,0,0,1,.53-.53,2.21,2.21,0,0,0-1.58.58v0a1.17,1.17,0,0,1,.42-.53c-1.22.05-2.12,1.53-2.12,1.53a1.32,1.32,0,0,0-1.27-1.06c-.74-.1-2.43,1-1.79,2.33a19.07,19.07,0,0,0-2.17,3.23v0a10.72,10.72,0,0,1,3-3.17c.11.1.8,1.79,2.28,1.85.16.1.9,1.37,2.22,1.27a4.68,4.68,0,0,0,.26,1.74l.06,0h0a4.33,4.33,0,0,1,1.48-.84,5.91,5.91,0,0,1,.42-1.06,2.49,2.49,0,0,0,2-2.33C105.21,46,104,44.51,102.62,44.67Zm-6.4,1.64a.32.32,0,1,1,.32-.31A.34.34,0,0,1,96.22,46.31Z"/><path class="cls-1" d="M114.78,44.36a3.66,3.66,0,0,1,2.65-1.22c3.81-.11,5.76,2.75,5.66,5a3.28,3.28,0,0,1-2.33,3.28,2.34,2.34,0,0,0,.42,1.33c.06,0,.11.1.06.26s-.11.16-.11.21a.27.27,0,0,0,0,.21A.69.69,0,0,1,121,54a2.72,2.72,0,0,0,.06,1.11c0,.05-.06.05-.11,0a1.59,1.59,0,0,1-.48-.9,2.19,2.19,0,0,0-1.16,1.21c0,.06-.11.11-.11,0a1.56,1.56,0,0,1,.64-1.37,1.47,1.47,0,0,0-1.06.21s-.1.05,0,0,.21-.53,1.21-.64c0,0,.22-.37.32-.63a2.73,2.73,0,0,0-.47-1.27,2.42,2.42,0,0,0-1.22.42c-.05,0-.11.11-.11.16v.21a.43.43,0,0,1-.26.32,11.16,11.16,0,0,0-1.27.47,1.74,1.74,0,0,0-.64.53,1.36,1.36,0,0,1-.58.48,1,1,0,0,0-.37.21l-.31.32a1.71,1.71,0,0,0-.48.63c0,.06,0,.11,0,0v-.31a1.57,1.57,0,0,1,.47-.85s0,0-.1,0a6.06,6.06,0,0,0-1.85.21c-.06,0-.11,0-.06-.05s.32-.69,1.59-.75a1.45,1.45,0,0,0-.9-.42c-.11,0-.05-.05,0-.05a1.35,1.35,0,0,1,1.32.16c.06,0,.48-.16.74-.21.32-.22,1-.9,1.27-1.06v-.32h0a3.08,3.08,0,0,1-.42-1.69,3.26,3.26,0,0,1-2-1.27,3,3,0,0,1-2.17-1.64,12,12,0,0,0-3.28,4s0,0-.1,0a1.55,1.55,0,0,1-.16-1.16,15.63,15.63,0,0,1,2.27-3.71,2.37,2.37,0,0,1,2.33-2.8,2.79,2.79,0,0,1,1.37.85Z"/><path class="cls-2" d="M118.59,44.67h0c.06-.16.43-.31.69-.31a2,2,0,0,0-1.85,0v0a2,2,0,0,1,.53-.53,2.22,2.22,0,0,0-1.59.58v0a1.17,1.17,0,0,1,.42-.53c-1.21.05-2.11,1.53-2.11,1.53a1.32,1.32,0,0,0-1.27-1.06c-.74-.1-2.43,1-1.8,2.33a19.71,19.71,0,0,0-2.17,3.23v0a11.42,11.42,0,0,1,3-3.17c.1.1.74,1.79,2.27,1.85A2.89,2.89,0,0,0,117,49.86a4.68,4.68,0,0,0,.26,1.74l0,0h0a4.55,4.55,0,0,1,1.48-.84,6.13,6.13,0,0,1,.43-1.06,2.56,2.56,0,0,0,2-2.33C121.24,46,120,44.51,118.59,44.67Zm-6.4,1.64a.32.32,0,1,1,.32-.31A.31.31,0,0,1,112.19,46.31Z"/><path class="cls-2" d="M102.09,81.54l-.37.26.37.22a.75.75,0,0,1,.42.68.81.81,0,0,1-.79.8H98.39a.82.82,0,0,1-.8-.8A.8.8,0,0,1,98,82l.37-.22L98,81.54a4.85,4.85,0,0,0-2.65-.79,4.79,4.79,0,0,0-2.64.79,5.27,5.27,0,0,1-3.18.79A6.63,6.63,0,0,1,85,80.64l0,0h-.85l-.1.1a.59.59,0,0,1-.48.22.63.63,0,0,1-.63-.59.6.6,0,0,1,.63-.58A.72.72,0,0,1,84,80l.1.11h1V78.84h-1L84,79a.58.58,0,0,1-.48.21.63.63,0,0,1-.63-.58.59.59,0,0,1,.63-.58.67.67,0,0,1,.48.21l.1.1h1V77.1h-1l-.1.1a.58.58,0,0,1-.48.21.63.63,0,0,1-.63-.58.6.6,0,0,1,.63-.58.72.72,0,0,1,.48.21l.1.11h1V75.35h-1l-.1.11a.58.58,0,0,1-.48.21.63.63,0,0,1-.63-.58.59.59,0,0,1,.63-.58.67.67,0,0,1,.48.21l.1.1h1V73.61h-1l-.1.1a.58.58,0,0,1-.48.21.63.63,0,0,1-.63-.58.59.59,0,0,1,.63-.58A.72.72,0,0,1,84,73l.1.11h1V71.86h-1L84,72a.61.61,0,0,1-.48.21.63.63,0,0,1-.63-.58.6.6,0,0,1,.63-.59.68.68,0,0,1,.48.22l.1.1h1V70.11h-1l-.1.11a.58.58,0,0,1-.48.21.63.63,0,0,1-.63-.58.59.59,0,0,1,.63-.58.67.67,0,0,1,.48.21l0,.11h.79l.85-.43V80.22l.11.21a6.23,6.23,0,0,0,6.66.42c2.17-1.21,5.24-1.27,7,1.32h-.68a.26.26,0,0,0-.27.27.25.25,0,0,0,.27.26h2.69a.25.25,0,0,0,.27-.26.26.26,0,0,0-.27-.27h-.84c1.85-2.64,4.92-2.43,7-1.32,1.91,1,4.13.85,6.61-.42l.16-.21V69.16l.85.43h.79l.06-.11a.55.55,0,0,1,.47-.21.63.63,0,0,1,.64.58.6.6,0,0,1-.64.58.63.63,0,0,1-.47-.21l-.11-.11h-1v1.22h1l.11-.1a.56.56,0,0,1,.47-.22.64.64,0,0,1,.64.59.61.61,0,0,1-.64.58.67.67,0,0,1-.47-.21l-.11-.11h-1v1.22h1l.11-.11a.55.55,0,0,1,.47-.21.63.63,0,0,1,.64.58.6.6,0,0,1-.64.58.63.63,0,0,1-.47-.21l-.11-.1h-1v1.21h1l.11-.1a.55.55,0,0,1,.47-.21.63.63,0,0,1,.64.58.61.61,0,0,1-.64.58.67.67,0,0,1-.47-.21l-.11-.11h-1v1.22h1l.11-.11a.55.55,0,0,1,.47-.21.64.64,0,0,1,.64.58.6.6,0,0,1-.64.58.63.63,0,0,1-.47-.21l-.11-.1h-1v1.21h1l.11-.1a.55.55,0,0,1,.47-.21.63.63,0,0,1,.64.58.6.6,0,0,1-.64.58.67.67,0,0,1-.47-.21l-.11-.11h-1v1.22h1l.11-.11a.55.55,0,0,1,.47-.21.64.64,0,0,1,.64.58.61.61,0,0,1-.64.59.64.64,0,0,1-.47-.22l-.11-.1h-.85l-.05,0a6.53,6.53,0,0,1-4.6,1.69,5.24,5.24,0,0,1-3.17-.79A4.54,4.54,0,0,0,102.09,81.54Z"/><path class="cls-2" d="M87,80c1.7.9,3.13,1.16,5.61-.16A6.26,6.26,0,0,1,99.87,81v.84c-2-2.59-5.24-2.48-7.51-1.21a5.68,5.68,0,0,1-6-.32V69.11l.58-.26V80Z"/><path class="cls-2" d="M87.38,79.64V68.53l.06,0A7.75,7.75,0,0,0,92.73,68a7,7,0,0,1,7.08,1V80.22a6.94,6.94,0,0,0-4.39-1.59,6.5,6.5,0,0,0-3.06.74C90.14,80.53,88.92,80.38,87.38,79.64Z"/><path class="cls-2" d="M107.59,79.85c2.49,1.32,3.91,1.06,5.61.16l.16-.06V68.79l.58.27V80.22q-3.42,1.66-6,.31c-2.28-1.16-5.5-1.42-7.51,1.22v-.84A6.22,6.22,0,0,1,107.59,79.85Z"/><path class="cls-2" d="M100.34,80.22V68.9a7.08,7.08,0,0,1,7.09-1,8.08,8.08,0,0,0,5.29.53l0,0V79.64c-1.53.79-2.75,1-5-.22A6.71,6.71,0,0,0,100.34,80.22Z"/><polygon class="cls-2" points="112.93 66.47 109.92 64.19 106.9 66.47 108.07 62.87 104.89 60.59 108.75 60.59 109.92 56.94 111.08 60.59 114.94 60.59 111.77 62.87 112.93 66.47"/><polygon class="cls-2" points="93.26 66.52 90.24 64.24 87.23 66.52 88.39 62.87 85.27 60.59 89.08 60.59 90.24 57 91.41 60.59 95.27 60.59 92.09 62.87 93.26 66.52"/><polygon class="cls-2" points="97.12 94.87 98.23 91.27 95.11 89 98.92 89 100.08 85.35 101.24 89 105.1 89 101.93 91.27 103.09 94.87 100.08 92.65 97.12 94.87"/><rect class="cls-3" width="200" height="200"/></svg>